<?xml version="1.0" standalone="no"?><!-- Generator: Gravit.io --><svg xmlns="http://www.w3.org/2000/svg" xmlns:xlink="http://www.w3.org/1999/xlink" style="isolation:isolate" viewBox="0 0 200 200" width="200" height="200"><defs><clipPath id="_clipPath_dFRw55px8A7Rmlih4hh2MEvTUjhPUP3I"><rect width="200" height="200"/></clipPath></defs><mask id="_mask_ebUBeRgMJRB5RB4AK5BAzyMnH3wTcxIN" x="-200%" y="-200%" width="400%" height="400%"><rect x="-200%" y="-200%" width="400%" height="400%" style="fill:white;"/><path d=" M 180.189 18.879 L 60.189 18.879 L 20.189 61.379 L 20.189 188.879 L 147.892 188.879 C 165.716 188.879 180.189 173.504 180.189 154.563 L 180.189 18.879 Z " fill-rule="evenodd" fill="black" stroke="none"/></mask><g clip-path="url(#_clipPath_dFRw55px8A7Rmlih4hh2MEvTUjhPUP3I)" mask="url(#_mask_ebUBeRgMJRB5RB4AK5BAzyMnH3wTcxIN)"><g opacity="0.6"><path d=" M 190.379 10 L 55.095 10 L 10 56.94 L 10 197.758 L 153.968 197.758 C 174.062 197.758 190.379 180.778 190.379 159.858 L 190.379 10 Z " fill-rule="evenodd" fill="rgb(10,156,191)"/></g><rect x="184.4" y="10" width="5.979" height="40" transform="matrix(1,0,0,1,0,0)" fill="rgb(0,208,255)"/><rect x="161.411" y="-7.011" width="5.979" height="40" transform="matrix(0,-1,1,0,151.411,177.389)" fill="rgb(0,208,255)"/><rect x="10" y="151.78" width="5.979" height="40" transform="matrix(1,0,0,1,0,0)" fill="rgb(0,208,255)"/><rect x="27.011" y="174.769" width="5.979" height="40" transform="matrix(0,-1,1,0,-164.769,224.769)" fill="rgb(0,208,255)"/></g></svg>