<?xml version="1.0" standalone="no"?><!-- Generator: Gravit.io --><svg xmlns="http://www.w3.org/2000/svg" xmlns:xlink="http://www.w3.org/1999/xlink" style="isolation:isolate" viewBox="0 0 1920 1080" width="1920" height="1080"><defs><clipPath id="_clipPath_l1hwItRn1xMHN9mLQ9qOQs3bpjSs4T18"><rect width="1920" height="1080"/></clipPath></defs><g clip-path="url(#_clipPath_l1hwItRn1xMHN9mLQ9qOQs3bpjSs4T18)"><g opacity="0.8"><rect x="5" y="655" width="23.428" height="420" transform="matrix(1,0,0,1,0,0)" fill="rgb(9,154,191)" fill-opacity="0.9490196078431372"/></g><g opacity="0.8"><rect x="28.428" y="655" width="386.572" height="16.322" transform="matrix(1,0,0,1,0,0)" fill="rgb(9,154,191)" fill-opacity="0.9490196078431372"/></g><rect x="28.428" y="1033.568" width="386.572" height="41.432" transform="matrix(1,0,0,1,0,0)" fill="rgb(255,255,255)" vector-effect="non-scaling-stroke" stroke-width="0.5" stroke="rgb(0,0,0)" stroke-opacity="100" stroke-linejoin="round" stroke-linecap="butt" stroke-miterlimit="1.414"/><g style="opacity:0.5;"><g opacity="0.5"><rect x="28.428" y="671.322" width="386.572" height="362.246" transform="matrix(1,0,0,1,0,0)" fill="rgb(255,240,229)"/></g></g><g style="opacity:0.6;"><g opacity="0.6"><path d=" M 1854.439 0 L 1920 111.606 L 1854.439 223.217 L 1723.316 223.217 L 1657.766 111.606 L 1723.316 0 L 1854.439 0 Z " fill-rule="evenodd" fill="rgb(10,155,191)" fill-opacity="0.7019607843137254"/></g></g><g style="opacity:0.6;"><g opacity="0.6"><path d=" M 1655.177 114.944 L 1720.739 226.55 L 1655.177 338.161 L 1524.055 338.161 L 1458.504 226.55 L 1524.055 114.944 L 1655.177 114.944 Z " fill-rule="evenodd" fill="rgb(8,153,192)" fill-opacity="0.2549019607843137"/></g></g><g style="opacity:0.6;"><g opacity="0.6"><path d=" M 1655.177 -113.217 L 1720.739 -1.611 L 1655.177 110 L 1524.055 110 L 1458.504 -1.611 L 1524.055 -113.217 L 1655.177 -113.217 Z " fill-rule="evenodd" fill="rgb(0,120,162)" fill-opacity="0.3764705882352941"/></g></g><g style="opacity:0.6;"><path d=" M 1847.356 8.842 L 1905.833 111.606 L 1847.356 214.375 L 1730.401 214.375 L 1671.933 111.606 L 1730.401 8.842 L 1847.356 8.842 Z " fill-rule="evenodd" fill="rgb(6,109,151)" fill-opacity="0.8823529411764706"/></g><g style="opacity:0.8;"><g opacity="0.6"><path d=" M 1648.094 123.786 L 1706.571 226.55 L 1648.094 329.319 L 1531.139 329.319 L 1472.671 226.55 L 1531.139 123.786 L 1648.094 123.786 Z " fill-rule="evenodd" fill="rgb(5,117,158)" fill-opacity="0.6509803921568628"/></g></g><g opacity="0.7"><path d=" M 1915.979 890 L 1780.695 890 L 1735.6 936.94 L 1735.6 1077.758 L 1879.568 1077.758 C 1899.662 1077.758 1915.979 1060.778 1915.979 1039.858 L 1915.979 890 Z " fill-rule="evenodd" fill="rgb(10,156,191)"/></g><g opacity="0.6"><path d=" M 1910 900 L 1790 900 L 1750 942.5 L 1750 1070 L 1877.702 1070 C 1895.526 1070 1910 1054.625 1910 1035.684 L 1910 900 Z " fill-rule="evenodd" fill="rgb(4,88,133)"/></g><rect x="200" y="0" width="270" height="60" transform="matrix(1,0,0,1,0,0)" fill="rgb(10,154,191)" fill-opacity="0.95"/><rect x="730" y="0" width="280" height="40" transform="matrix(1,0,0,1,0,0)" fill="rgb(10,155,191)" fill-opacity="0.95"/><rect x="990" y="40" width="20" height="20" transform="matrix(1,0,0,1,0,0)" fill="rgb(10,155,191)" fill-opacity="0.95"/><rect x="1010" y="20" width="20" height="20" transform="matrix(1,0,0,1,0,0)" fill="rgb(10,155,191)" fill-opacity="0.95"/><rect x="470" y="30" width="260" height="30" transform="matrix(1,0,0,1,0,0)" fill="rgb(10,154,191)" fill-opacity="0.95"/><rect x="200" y="60" width="10" height="135" transform="matrix(1,0,0,1,0,0)" fill="rgb(10,154,191)" fill-opacity="0.95"/><rect x="210" y="180" width="20" height="15" transform="matrix(1,0,0,1,0,0)" fill="rgb(10,154,191)" fill-opacity="0.95"/><rect x="210" y="58.878" width="20" height="15" transform="matrix(1,0,0,1,0,0)" fill="rgb(10,154,191)" fill-opacity="0.95"/><rect x="212" y="76" width="5" height="102" transform="matrix(1,0,0,1,0,0)" fill="rgb(252,176,53)"/><rect x="219" y="76" width="5" height="102" transform="matrix(1,0,0,1,0,0)" fill="rgb(252,176,53)"/><rect x="226" y="76" width="5" height="102" transform="matrix(1,0,0,1,0,0)" fill="rgb(252,176,53)"/><rect x="30" y="195" width="170" height="35" transform="matrix(1,0,0,1,0,0)" fill="rgb(10,154,191)" fill-opacity="0.95"/><path d=" M 470 -1.186 L 470 30 L 505.688 30 L 470 -1.186 Z " fill-rule="evenodd" fill="rgb(10,154,191)" fill-opacity="0.95"/><path d=" M 730 -1.186 L 730 30 L 694.312 30 L 730 -1.186 Z " fill-rule="evenodd" fill="rgb(10,154,191)" fill-opacity="0.95"/><rect x="510" y="0" width="26.059" height="25.225" transform="matrix(1,0,0,1,0,0)" fill="rgb(252,176,53)"/><rect x="586.971" y="0" width="26.059" height="25.225" transform="matrix(1,0,0,1,0,0)" fill="rgb(252,176,53)"/><path d=" M 536.059 0 L 536.059 25.225 L 560 25.225 L 536.059 0 Z " fill-rule="evenodd" fill="rgb(252,176,53)"/><path d=" M 510 25.225 L 510 0 L 480 0 L 510 25.225 Z " fill-rule="evenodd" fill="rgb(252,176,53)"/><rect x="663.941" y="0" width="26.059" height="25.225" transform="matrix(1,0,0,1,0,0)" fill="rgb(252,176,53)"/><path d=" M 663.941 0 L 663.941 25.225 L 640 25.225 L 663.941 0 Z " fill-rule="evenodd" fill="rgb(252,176,53)"/><path d=" M 690 25.225 L 690 0 L 720 0 L 690 25.225 Z " fill-rule="evenodd" fill="rgb(252,176,53)"/><path d=" M 626.059 25.225 L 626.059 0 L 650 0 L 626.059 25.225 Z " fill-rule="evenodd" fill="rgb(252,176,53)"/><path d=" M 573.941 25.225 L 573.941 0 L 550 0 L 573.941 25.225 Z " fill-rule="evenodd" fill="rgb(252,176,53)"/><path d=" M 200 230 L 200 195 L 230 195 L 200 230 Z " fill-rule="evenodd" fill="rgb(10,154,191)" fill-opacity="0.95"/><path d=" M 30 230 L 30 195 L 0 195 L 30 230 Z " fill-rule="evenodd" fill="rgb(10,154,191)" fill-opacity="0.95"/><rect x="-0.741" y="0" width="200.741" height="195" transform="matrix(1,0,0,1,0,0)" fill="rgb(10,154,191)" fill-opacity="0.95"/><path d=" M 730 60 L 730 40 L 750 40 L 730 60 Z " fill-rule="evenodd" fill="rgb(10,154,191)" fill-opacity="0.95"/><path d=" M 990 60 L 990 40 L 970 40 L 990 60 Z " fill-rule="evenodd" fill="rgb(10,154,191)" fill-opacity="0.95"/><path d=" M 1010 60 L 1010 40 L 1030 40 L 1010 60 Z " fill-rule="evenodd" fill="rgb(10,154,191)" fill-opacity="0.95"/><path d=" M 1010 0 L 1010 20 L 1030 20 L 1010 0 Z " fill-rule="evenodd" fill="rgb(10,154,191)" fill-opacity="0.95"/><rect x="237.792" y="66.378" width="484.416" height="123.622" transform="matrix(1,0,0,1,0,0)" fill="rgb(1,43,67)" fill-opacity="0.75" vector-effect="non-scaling-stroke" stroke-width="5" stroke="rgb(50,132,158)" stroke-linejoin="round" stroke-linecap="butt" stroke-miterlimit="1.414"/><rect x="255" y="97.5" width="75" height="23.798" transform="matrix(1,0,0,1,0,0)" fill="rgb(9,154,191)" fill-opacity="0.9490196078431372"/><rect x="255" y="127.001" width="75" height="23.798" transform="matrix(1,0,0,1,0,0)" fill="rgb(9,154,191)" fill-opacity="0.9490196078431372"/><rect x="255" y="156.202" width="75" height="23.798" transform="matrix(1,0,0,1,0,0)" fill="rgb(9,154,191)" fill-opacity="0.9490196078431372"/><rect x="347.5" y="97.5" width="75" height="23.798" transform="matrix(1,0,0,1,0,0)" fill="rgb(9,154,191)" fill-opacity="0.9490196078431372"/><rect x="347.5" y="127.001" width="75" height="23.798" transform="matrix(1,0,0,1,0,0)" fill="rgb(9,154,191)" fill-opacity="0.9490196078431372"/><rect x="347.5" y="156.202" width="75" height="23.798" transform="matrix(1,0,0,1,0,0)" fill="rgb(9,154,191)" fill-opacity="0.9490196078431372"/><rect x="442.5" y="97.5" width="75" height="23.798" transform="matrix(1,0,0,1,0,0)" fill="rgb(9,154,191)" fill-opacity="0.9490196078431372"/><rect x="442.5" y="127.001" width="75" height="23.798" transform="matrix(1,0,0,1,0,0)" fill="rgb(9,154,191)" fill-opacity="0.9490196078431372"/><rect x="442.5" y="156.202" width="75" height="23.798" transform="matrix(1,0,0,1,0,0)" fill="rgb(9,154,191)" fill-opacity="0.9490196078431372"/><rect x="537.5" y="97.65" width="75" height="23.798" transform="matrix(1,0,0,1,0,0)" fill="rgb(9,154,191)" fill-opacity="0.9490196078431372"/><rect x="537.5" y="127.151" width="75" height="23.798" transform="matrix(1,0,0,1,0,0)" fill="rgb(9,154,191)" fill-opacity="0.9490196078431372"/><rect x="537.5" y="156.352" width="75" height="23.798" transform="matrix(1,0,0,1,0,0)" fill="rgb(9,154,191)" fill-opacity="0.9490196078431372"/><rect x="632.5" y="97.8" width="75" height="23.798" transform="matrix(1,0,0,1,0,0)" fill="rgb(9,154,191)" fill-opacity="0.9490196078431372"/><rect x="632.5" y="127.301" width="75" height="23.798" transform="matrix(1,0,0,1,0,0)" fill="rgb(9,154,191)" fill-opacity="0.9490196078431372"/><rect x="632.5" y="156.502" width="75" height="23.798" transform="matrix(1,0,0,1,0,0)" fill="rgb(9,154,191)" fill-opacity="0.9490196078431372"/><rect x="252.5" y="97.5" width="75" height="23.798" transform="matrix(1,0,0,1,0,0)" fill="rgb(9,154,191)" fill-opacity="0.9490196078431372"/><rect x="252.5" y="127.001" width="75" height="23.798" transform="matrix(1,0,0,1,0,0)" fill="rgb(9,154,191)" fill-opacity="0.9490196078431372"/><rect x="252.5" y="156.202" width="75" height="23.798" transform="matrix(1,0,0,1,0,0)" fill="rgb(9,154,191)" fill-opacity="0.9490196078431372"/><g><circle vector-effect="non-scaling-stroke" cx="0" cy="0" r="1" transform="matrix(80,0,0,80,110,120)" fill="rgb(86,86,86)" stroke-width="2.9" stroke="rgb(0,43,67)" stroke-linejoin="round" stroke-linecap="butt" stroke-miterlimit="1.414"/></g></g></svg>