<?xml version="1.0" encoding="utf-8"?>
<!-- Generator: Adobe Illustrator 18.0.0, SVG Export Plug-In . SVG Version: 6.00 Build 0)  -->
<!DOCTYPE svg PUBLIC "-//W3C//DTD SVG 1.1//EN" "http://www.w3.org/Graphics/SVG/1.1/DTD/svg11.dtd">
<svg version="1.1" id="Ebene_1" xmlns="http://www.w3.org/2000/svg" xmlns:xlink="http://www.w3.org/1999/xlink" x="0px" y="0px"
	 viewBox="0 0 623.6 425.2" enable-background="new 0 0 623.6 425.2" xml:space="preserve">
<g>
	<path fill="#EF4216" d="M-373,575.6c0,41.2,0,82.3,0,123.5c0,2.2-0.2,4.3-0.1,6.5c0.2,2.5-0.9,3.3-3.2,3.1c-0.7-0.1-1.3,0-2,0
		c-73.3,0-146.6,0-219.9,0.1c-4.3,0-5.8-0.7-5.2-5.4c1.6-11.8-0.4-23.6-0.7-35.4c-0.7-24.8-0.8-49.6,0-74.4
		c0.3-10.5-1.4-21-0.4-31.4c1.2-12,0.2-23.9,0.1-35.8c-0.1-16.8-1.1-33.6-0.1-50.4c0.6-9.9-0.5-19.6-0.4-29.4c0-3,0.7-4,3.9-4
		c74.8,0.1,149.6,0.1,224.4,0c4.1,0,3.6,2.1,3.6,4.6C-373,490-373,532.8-373,575.6z M-558.4,495.6c-1.2,0-2.3-0.1-3.5,0
		c-5,0.5-9.9,5.5-9,9.8c0.8,3.8,2.3,7.2,4.5,10.6c5,7.4,11.4,13.1,18,18.9c12.4,10.9,23.5,23.3,37.2,32.8c3.7,2.6,3.6,7.4-0.2,9.5
		c-9.1,5-15.9,12.6-23.4,19.5c-5.1,4.7-10.5,9-15.5,13.8c-7.1,6.8-15.1,12.9-21,20.9c-2.3,3.1-2.5,5.8,0.9,8.5
		c4.6,3.5,9.8,4.3,15.3,3.3c8.7-1.6,14.2-8.4,20.4-13.7c18.9-16,36.6-33.4,54.2-50.8c6.2-6.1,7-9.8-0.4-17.3
		c-6.6-6.6-13.7-12.6-20.5-19.1c-13.2-12.6-27.1-24.4-39.9-37.3C-545.8,500.4-550.6,494.9-558.4,495.6z M-440.5,636.6
		c8.1,0,16.3,0.1,24.4,0c5.6-0.1,13.4,2.5,16.1-1c2.8-3.7,0.8-11.1,0.9-16.9c0-0.2,0-0.3,0-0.5c0.3-2.2-0.8-2.8-2.9-2.8
		c-25.7-0.2-51.4-0.4-77.1-0.7c-2.4,0-3.2,0.7-3.1,3.1c0.2,5.1,0.2,10.3,0,15.5c-0.1,2.9,1,3.6,3.7,3.5
		C-465.8,636.5-453.1,636.6-440.5,636.6z"/>
	<path fill="#EF4216" d="M-190.7,452.2c3.3-2.8,8.4-4.4,8.9-6.3c0.4-1.8,2.1-1.1,3.4-1.1c6.2,0.1,10.7-3.1,14.4-7.6
		c1.2-1.4,1.9-2.8,4.2-2.8c2.3,0.1,4.4-1.3,6.4-2.5c3.5-2,5.8-6.4,9.1-7.5c9.3-3,15.1-10.6,22.5-15.9c7.7-5.5,14.6-12.3,21.3-19.3
		c11.2-11.8,21.4-24,26.9-39.5c4.4-12.6,4.9-25-1.7-37.2c-8.4-15.4-22.9-22.1-38.7-26.8c-16-4.8-32.6-6.5-49.3-6.4
		c-10.4,0.1-20.8,1-31.2,2.6c-10.2,1.6-20.1,4.2-29.9,7.1c-6.2,1.8-12.4,3.9-17.9,7.1c-5.4,3.1-11.1,5.8-16.5,8.6
		c-6.8,3.6-12.1,9.5-19.4,12.1c-2.4,0.9-3.1,3.8-5.6,4.8c-5.8,2.3-6.7,5.9-2.6,11c4,5,8,10.1,11.3,15.6c1.6,2.7,4.4,2.6,5.3,1
		c2.7-5,8.3-5.7,11.9-9.2c3.8-3.8,8.9-5.8,13.5-8c7.9-3.8,16.2-7.1,24.9-9.5c9-2.5,18-4.3,27.3-5.3c14.7-1.7,29.2-0.5,43.6,2.4
		c9.7,1.9,19,4.8,27.2,10.6c3.4,2.4,4.2,5.2,2.1,8.9c-2.6,4.5-5.5,8.8-9,12.5c-10.7,11.3-22.2,21.7-35.5,30
		c-1.4,0.9-2.9,1.9-3.8,3.2c-1.4,2.1-3.4,2.8-5.7,3.5c-3.9,1.2-7.1,3.7-9.6,6.8c-1.4,1.7-2.7,2.4-4.8,2.9c-4.5,1.2-8.9,3.1-11.6,7.2
		c-1.2,1.9-2.2,2.3-4.5,2.5c-5.5,0.6-10.9,2.5-13,8.3c-0.9,2.5-1.9,1.8-3.7,1.4c-5.5-1.3-12.7,2.5-14.3,7.7
		c-0.7,2.2-1.4,1.8-3.3,1.9c-4,0.2-8.8,1-11,4.6c-2.5,4-6,5.6-9.8,5.7c-5.5,0.1-9.5,1.8-12.5,6.6c-1.5,2.5-3.9,3.7-6.8,1.7
		c-5.3-3.6-7.5-3.4-11.7,1.3c-2.9,3.3-6,5.4-10.1,1.5c-1.7-1.6-3.8-1.2-5.4,0.3c-2,1.8-4.2,3.4-5.4,5.8c-2.4,4.5,1.3,8.4,2.4,11.9
		c2.1,6.5,0.3,12.8,1.5,19c0.3,1.4,0,3,0,4.5c3.5,0.7,7.4-0.5,10.5,2.2c0.9,0.8,1.8,0.1,2.6-0.6c1.8-1.7,3.9-3.2,5.4-5.2
		c1.9-2.4,4.3-2.9,6.6-1.9c7,3.1,11.8-0.4,16-5.3c1.6-1.9,2.9-2.2,5.1-1.2c5.5,2.6,8.1,1.8,12.5-3c1.1-1.2,2.3-2.4,3.4-3.6
		c3.2-3.8,6.4-6,10.5-1c0.9,1.2,2.3,0.8,3.1,0c2.9-3,7.5-3.6,10.1-7.2c1.7-2.4,4.8-2.7,7.7-2.7c3.3,0,6.4,0,8.8-3.4
		C-201.9,453.6-195.3,450.7-190.7,452.2"/>
	<path fill="#EF4216" d="M-33.9,495.5c-2.8-5.9-6.6-11.1-11.4-15.6c-14.6-13.7-31.7-23.2-50.8-28.7c-14-4.1-28.3-6.1-43.2-5.3
		c-5.6,0.3-11.1,1.3-16.6,1.1c-7.5-0.2-14.2,3.8-21.7,3.4c-0.4,0-1,0.3-1.3,0.7c-2.1,2.9-6.6,4.7-12.1,5.9c-0.7,0.4-1.6,0.7-2.6,0.7
		c-0.3,0-0.6,0-0.8-0.1c-0.2,0-0.3,0.1-0.5,0.1c0,0,0.1-0.1,0.2-0.1c-1.4-0.3-1.5-0.1-3.4-0.2c-5.2,0.4-9,8.5-15.9,6.7
		c-3.9-1-5.5,3-5.3,7.3c0.4,7.2,4.8,12.2,8.5,17.6c1.8,2.6,5.6,2.3,7.9-1c1.5-2.2,2.6-3.2,5.2-1.9c0.6,0.3,1.9,0.5,2.4,0.1
		c5.1-4.6,12.1-3.3,17.9-5.9c4.2-1.8,9.3-2,13.9-2.5c13-1.3,26-1.9,39,0.7c15.3,3.1,29,9.5,40.9,19.6c0.9,0.8,2.5,1.6,2,3.1
		c-0.4,1.2-1.9,1-3.1,1.2c-11.2,1.6-22.4,2.7-33.6,4.2c-8.5,1.1-17.3-0.5-25.6,2.6c-1.2,0.4-2.3,0-3.4-0.2
		c-4.7-0.9-9.3-0.7-13.7,1.3c-1.7,0.8-3,0.6-4.6,0.1c-5.1-1.5-10.2-1.3-14.9,1.5c-1.1,0.7-1.9,1.5-3.5,0.6
		c-6.3-3.3-12.4-3.4-17.6,2.2c-0.9,0.9-1.4,0.8-2.5,0.1c-4-2.5-7.7-2.1-11.2,1.2c-1.7,1.6-3.7,2.9-6.1,3.3c-1.7,0.3-3.2,0.3-4.5-1.3
		c-3.4-4.3-8.9-4.9-12.5-1c-2.6,2.8-5.1,3.4-8.4,1.4c-1.4,0-2.9,0.3-3.1-1.7c-5.4-1.5-10.8-2.6-15,2.7c-1.9,3.5-3.4,3.3-7-0.9
		c-5.8-3.8-11.7-5.1-17.8-0.7c-1.7,1.2-3.4,0.3-5-0.6c-3.7-2.2-7.3-3.6-9.5,2c-0.8,2-2.9,2-4.6,2.3c-1.8,1.7-2.7,1.1-3-1.1
		c-5-6.1-6.1-6-12.3-1.9c-4.1,2.7-8.6,4.5-13.9,4.1c-7.6-0.5-22.3,0.2-29.9,0.2l0.3,35.8c0.3,0.9,0.7,1.7,1,2.6
		c4-0.8,8-0.5,11.7,1.1c3.5,1.5,7.1,1.3,10.7,1.4c2.5,0,4.2-1,4.5-3.6c0.3-2.4,1.5-4.1,3.9-4.6c4.2-0.9,8.9-1,12,1.6
		c3.9,3.1,6.7,2.2,10.3,0.3c2.7-1.4,5.7-2,8.4,0.3c6.5,5.4,8.2,5.5,14.8-0.1c2.8-2.4,5.1-2.3,7.4-0.1c2.9,2.8,5.5,2.4,8.4,0.2
		c3-2.4,6.6-3.3,9.8-1.5c6.3,3.5,11.6,1.7,17.1-1.8c2.6-1.6,6-2.3,8.2,0.5c2.7,3.5,5.4,2.8,8.2,0.9c3.3-2.2,6.9-2.1,10.1-0.9
		c3.6,1.3,7.1,1.1,10.7,1.4c3.3,0.3,6.8-2.2,9.6-0.3c6.2,4.2,12.1,3.7,18-0.2c1.2-0.8,2-0.4,3.2,0.2c5.1,2.6,10.3,1.9,15.4,0
		c1.4-0.5,2.4-1.4,4.1-0.7c4.9,2,9.8,1.1,14.7-0.3c1.3-0.4,2.4-0.8,3.8-0.7c10,1.2,19.7-1.3,29.6-2.2c6.2-0.6,12.5-1.6,18.7-2.5
		c15.4-2.2,30.4-5.5,44.1-13.1C-32.6,527.5-26.5,511.1-33.9,495.5z"/>
	<path fill="#EF4216" d="M-367.3,500.5c0.3,0,1.9,0.1,2.2,0.1c4-0.1,8-0.1,11.9-0.2c3.2,1.2,6.5,3.3,9-1.2c3.2-3.8,7.3-2.7,11.3-2.3
		c0.1,7.2-1.1,14.4,0.6,21.6c0,0.7-1.1,0.1-1.1,0.8c-1.6,0.1-2.3-0.9-3.8,1.5c-3.3,0-6.6,0-9.8,0c-4.2,0.1,0,0-4.2,0.1
		c-1.3,1.1,1.8,0-2.6-0.1c-3.1,0.1,1.8,0.3-3.4,0c-1.9-0.1-9.6-0.1-11.5,0"/>
	<path fill="#EF4216" d="M-331.1,706.8c0.1,6.6-0.1,19,0.1,25.6c0.1,2.1-0.2-3.6-0.7,4.5c-0.9,5.9-0.3,0-0.5,2.8
		c-0.2,2.7,0.7-0.9-1.1,4.1c-0.6,0.1,1.3,0.5-0.3,1.9c-1.1,0.1,0.4-0.5-1.4,1.9c0,20.6,0,41.1,0,61.7c0,2.5-0.3,4.9-0.5,7.4
		c-2,2.5,0.2-0.3-2,2.5l-0.5-0.1c0,0,0.5,0.1,0.4,0.1c-3.5,1.8-0.4-0.1-3.5,1.8c-0.8,0.8-1.8,1.1-2.9,0.9c-3.1,0.9,0,0-3.1,0.9
		c-1.5,1.2-3.2,0.9-4.9,1.1c-3.1,0.9,0,0.3-3.1,0.9c-3.1,1.5-6.5,0.8-9.7,0.8c-17.7,0.2-35.4,0.2-53.2,0.2c-3.4,1,1.4-0.1-3.7,0.2
		c-17.1-0.3-1.6,0.1-12.6-0.1c-7.8-0.3,2.3-0.1-3.9,0c-8.3-0.1-16.6-0.1-24.9-0.2c-1.8-1.4-3.4-1.8-4,1.1c-5.9,1.7-12,0.5-18,0.9
		c-0.8-1.2-2-1-3.2-0.9c-0.4,0.1-0.7-0.1-0.8-0.5c-2.7-2.5-5.4-2.6-8,0.2c-1.4,1.8-3.4,1.1-5.1,1.1c-15.9,0.2-31.9,0.2-47.8,0.3
		c-1.7-1.9-2.7-1.4-3.1,0.9c-1.3,1-2.7,1-4,0c-0.4-2.3-1.4-2.8-3.1-0.9c-5.6-0.7-11.4,0.7-16.9-1c-3.1-1,1.4,0-3.1-1
		c-18-0.1-35.9-0.2-53.9-0.3c-9.5,0-10.5-0.9-11-10.3c0-0.8-0.1-1.7-0.2-2.5c-0.9-3.1,0.2,2.5-0.9-3.1c-1.7-6.9-0.3-14-1.1-20.9
		c-1.3-3.9,0,0-0.9-3.1c-1.5-2.6-0.8-5.5-0.8-8.2c-0.1-20.4,0-40.8-0.1-61.1c0-2.8-0.3-5.6-0.5-8.4c1.3-0.6,1.6-1.5,0.5-2.5
		c-1-0.8-1.7-0.2-2.2,0.8c-0.8-2-7.9-3.7,0-6.1c3.9-1.2,2.4,0,3.4-2.8l1.8-0.7c2.5,1.3,2.5-0.1,2.4,0.2c0.1,2.5,4.5,1.1,7.1,0.5
		c3-0.8,5.4-0.1,7.6,1.9c0.4,1.3,0.9,2,2,0.5c2,0.1,4-0.1,5.9-0.9c1.4,0,2.8-0.1,4.3-0.1c0,0-0.1-0.1-0.1-0.1
		c1.3,4.2,4.9,1.2,7.2,2.2c-0.4,1.3-0.7,2.6-1.1,3.9c-1.5,0.8-1.5,1.8-0.3,2.9c0,0.7,0.1,1.3,0.1,2c0.2,10.1,0.2,10.1,10.1,10.1
		c32.5,0,65,0,97.5,0c2.7,0,3.3-0.4,7.3-0.1c5.2,0.4,0,0,5.2,0.4c4.9-0.2,2.8-0.2,4.9-0.2c38.5,0,77-0.1,115.5,0.1
		c5.6,0,2.6-12.2,3.5-14.4"/>
	<path fill="#EF4216" d="M-330.8,708.7"/>
	<path fill="#EF4216" d="M-366.9,707.6c-1.4-5.4,0-7.4,4.4-8.2c0.5-0.1,1-0.3,1.4-0.6c0.6-0.3,2.6-0.6,4.7-0.5
		c1.4,0,3.1,0.3,4.4,0.3c3,0.4,5.9,1.9,8.9,1.2c0.7,0,1.6-0.7,2.5-1.4c2.2,1.8,3.4,1.1,4.6-1.2c2.1,0.6,5.3,6.2,4.9,10.4"/>
	<path fill="#EF4216" d="M-330.1,452.6c-0.5,3.6-1.9,5.1-5,2.1c-7.2-7.2-16.2-8.9-25.8-7.6c-4.5,0.6-5.3-0.7-5.2-4.8
		c0.2-8.6,0-8.6-8.4-8.6c-75.3,0-150.6,0-225.9,0c-7.5,0-8,0-8.3,7.4c-0.2,5.3-1.3,7.6-7.3,7.6c-5.3,0.1-10.6,0.4-15.9,0.6
		c-3.5,0.1-7,0-9.6,3.1c-1,1.2-2.5,1.5-3.6,0.4c-1.9-1.9-5.6-3.4-4.7-6.5c2.4-7.6,1.1-14.9,0.1-22.5c-1.1-8.7-2-18.1,0.2-26.3
		c2.5-9.8,1.3-19.3,2.4-28.9c0,0,0.2-0.1,0.2-0.1l-0.1,0c-2.2-7.2-0.8-14.6-0.4-21.8c0.1-2.1,1-4.2,1.5-6.3c0.8-3.7,2.9-6.8,6.5-7.6
		c5.5-1.1,11.6-3,16.7-1.6c9.6,2.5,18.9,0.3,28.2,0.2c4.7-0.1,9.2,0.7,13.8,0.6c15.8-0.2,230.5,0.7,246.2,0.9"/>
	<path fill="#EF451A" d="M-578.5,902c-0.8-4.6-3.8-7.1-8-7.6c-5.1-0.7-10.5-0.9-14.3,3.6c-1.6,2-1.5,4.6,0,6.5
		c1.8,2.3,0.8,3.5-1,4.9c-3.3,2.7-7.1,4.9-11.2,5.2c-5.5,0.4-9.4,3-13.1,6.3c-2.2,2-4.1,2.1-6.7,0.9c-12.1-5.3-21.1-14.8-31.6-22.3
		c-1.9-1.3-0.5-2.7,0.5-3.8c5.1-5.6,10.3-11.1,15.5-16.7c1.7-1.8,3.3-3.7,4.5-6c1.8-3.7,4.3-3.9,6.3-0.4c1.9,3.2,2.9,2.6,3.6-0.3
		c0.8-3,2.9-4.6,5.3-6.2c4.6-3.1,8.7-6.8,10.3-12.4c0.4-1.4,1.1-3.2-0.7-3.9c-2-0.8-2.6,1.1-3,2.5c-2.1,7.6-9.5,9.9-14.3,14.8
		c-0.7,0.7-1.7,0.2-2.2-0.3c-1.7-1.7-4-2.3-6.2-3.1c-5.5-2.1-10.5-4.8-13.9-10c-1.8-2.7-4.2-5.2-7.5-6.3c-1.2-0.4-2.4-0.5-3,0.8
		c-0.6,1.1,0,2,1,2.5c4.5,2,7.1,6,9.9,9.7c2.5,3.3,6.2,4.4,9.7,5.8c2.8,1.1,2.7,2.4,1.2,4.4c-4.2,5.5-7.9,11.5-13.9,15.6
		c-2.4,1.6-3.8,4.6-5.6,7c-2.2,2.9-4.3,2.9-7.1,0.4c-3.1-2.8-3.9-7-6.8-9.8c-8.2-7.9-15.7-16.5-25.6-22.6
		c-5.8-3.6-10.9-8.7-11.9-16.4c-0.6-4.9-3.5-8.8-5.9-13.1c-8-14.3-18.8-26.5-27.3-40.4c-3.2-5.2-4.4-11.2-5.5-17
		c-0.9-5.1,2-7.2,6.8-5.5c1.5,0.5,3.5,1.2,4.4-0.8c0.8-1.8-1.2-2-2.3-2.6c-4.9-2.9-7.6-6.8-6.3-12.7c0.5-2.6,0.8-5.3,1.2-7.9
		c0.2-1.2,0.4-2.5-1-3c-1.8-0.6-2.4,1-2.7,2.2c-1.3,5.4-2.3,10.8-1.1,16.3c0.5,2.1,0.8,3.9-1.7,6c-2.1-6.9-4.5-13.3-6.1-20
		c-0.8-3.4,6.1-10.1,10.2-10.1c4.1,0,7.6-1.5,9.6-4.4c3-4.2,7.1-4.8,11.4-5.8c3.7-0.9,7.3-3.7,10.8,0.7c0.6,0.8,2.9,0.2,4.3,0.4
		c4.6,0.3,9.4-1,13.6,1.8c0.9,0.6,2,0.7,2.6-0.4c0.6-1,0.3-2.1-0.5-2.7c-1-0.8-2.3-1.3-3.5-1.9c-2.6-1.3-4.5-4.6-3.5-6.3
		c1.6-2.4,2.2-7.1,7.3-5.9c3.8,0.9,7.8,2.1,11.3-1.2c0.2-0.2,1.1-0.1,1.3,0.2c2.6,4.5,8,5.3,11.5,8.6c1.9,1.7,2.8,3.3,0.7,5.8
		c-2.3,2.8-3.8,6.2-5.8,9.3c-3,4.6-1.8,9.3-0.1,13.9c0.4,1.2,1.1,2.2,2.5,1.7c1.4-0.5,1.5-1.8,1-2.9c-3-6.7,0.4-11.9,3.7-17.1
		c1.7-2.7,3.3-4.9,7-4.6c2.3,0.2,3.5-1.6,4.2-3.6c1.1-3,1.4-6.2,0.9-9.3c-0.2-1.3-0.2-3-2-2.9c-2,0.1-2.1,1.8-1.9,3.3
		c0.1,1.2,0.4,2.3,0.3,3.4c-0.3,2.4-4.1,4.1-5.5,2.4c-2.8-3.3-6.5-5.2-10-7.3c-1.5-0.9-2.9-2.1-1.9-4c1.1-2.2,2.6-0.3,3.8,0.1
		c5.3,1.8,8.5,0.9,12.5-3.8c0.6-0.7,1-1.2,2-1.4c4-0.6,13.9,7.9,14.9,12c3.8,16.2,0.4,32.5,0.8,48.7c0.2,9.6,0.3,19.3,1.1,28.9
		c0.1,1.1,0.7,2.5-0.5,3.2c-1.1,0.6-2.2-0.3-3.2-0.8c-10.8-6.3-22.2-11.5-32.7-18.3c-5.3-3.4-11.8-4.5-18.2-4.9
		c-5.3-0.3-10.7-0.1-16,0.2c-1.8,0.1-5.3-0.9-5.2,2.2c0.1,3.1,3.4,1.6,5.3,1.7c6.6,0.2,13.2-1,19.9,0.5c5.9,1.4,11.2,3.5,16.5,6.5
		c7.3,4.1,14.4,8.7,22.3,11.8c1.8,0.7,3.3,2.1,4.5,4.1c-4.9-0.8-9.7-1.5-14.6-2.3c-1.7-0.3-4.1-1.6-4.6,0.9c-0.5,2.4,2.2,2.4,3.9,3
		c2.8,0.9,6,0.1,8.8,1.7c0,0.3,0.1,0.8,0,0.9c-9.6,5.9-7.9,14.8-6.3,23.6c0.3,1.5,0.9,3.3,2.7,3c2-0.4,1.5-2.3,1.2-3.7
		c-0.7-2.8-0.9-5.6-0.9-8.4c0-7.7,7.2-14.7,14.9-14.6c1.4,0,2.9-0.3,2.8,1.7c-0.2,5,2.4,9.6,2.2,14.7c-0.5,11.8,2.3,10.4,12.2,12.7
		c0.9,0.2,2,0,3-0.2c4.7-0.9,7.5,0.9,8.9,5.5c2.7,8.5,9.9,14,14.4,21.5c1.8,3.1,5.8,3,9.1,3.1c3.1,0.2,6.2,0.3,9.4,3.1
		c-5.8,1.9-10.6,4.5-13.4,9.5c-0.9,1.5-1.5,0.5-2.3,0c-1.9-1-4-1.1-5.5,0.5c-1.4,1.5-0.4,3.2,0.6,4.5c1.5,1.9,3.3,3.4,6,2.6
		c0.6-0.2,1.5-0.4,1.7-0.9c3.4-7,9-10.9,16.3-13.4c2.7-0.9,0.9-4.1-0.7-5.9c-3.1-3.3-7.3-4-11.5-4c-4.2,0-7.3-1.4-9.3-5.4
		c-3.1-6.1-9.2-10.1-11.4-16.9c-0.8-2.6-0.7-3.6,2.2-3.7c8.5-0.2,17-0.6,25.5-0.9c1.2,0,2.9-0.6,3.6,0.8c0.7,1.4-0.7,2.5-1.6,3.4
		c-2,2.3-3.8,4.7-3.7,7.9c0,1.5-0.2,3.4,1.7,3.6c2.3,0.3,2-1.7,2.1-3.1c0.5-4.8,4.9-7.4,6.9-11.4c0.7-1.5,2.1,0,2.8,0.7
		c2,2.2,4.2,2.2,7.1,2.1c12.2-0.4,24.4-0.2,36.7,0.4c-8,3.8-15.6,8.7-25.2,6.5c-4.2-0.9-8.5-1.8-12.7-2.4c-1.7-0.3-4.2-1-4.6,1.5
		c-0.4,2.5,2.2,1.8,3.7,2.2c11.6,3,23.1,5.3,34.5-0.8c2.2-1.2,3.3-0.5,3.3,2.1c0,0.9,0.6,1.9,1.1,2.7c2.4,4.1,0.8,7.7-4,8.4
		c-4,0.6-8,0.6-11.3-2.4c-1-0.9-2.1-2.1-3.4-0.7c-1.4,1.5-0.1,2.8,0.9,3.9c4.3,4.5,15.1,4.9,19.8,0.5c2.7-2.5,4.9-3.8,8.2-1.2
		c0.5,0.4,1.2,0.6,1.9,0.7c1.5,0.3,3.2,0.8,3.9-1c0.7-2-1.2-2.1-2.5-2.9c-4.7-2.5-9.3-5-11.6-10.3c-0.8-1.8-0.5-2.9,1-2.7
		c6.3,0.6,10.3-5.2,15.8-5.7c6.5-0.7,13.1,0.1,19.6,0.5c1.8,0.1,1.5,1.9,1.5,3.2c0.4,15.8,0.9,31.6-2.8,47.2
		c-1.5,6.1,0.1,12.6,0.5,18.9c0.5,8.2-1.1,15.9-4.3,23.4c-4.4,10.2-17.2,18.2-28.4,17.8c-3.2-0.1-6.4-0.1-9.4,1
		c-5.1,1.9-10.2,0.6-15.3,0.1c-3.3-0.3-2.1-2.9-1.8-4.6c0.2-1.6-1.2-4,2.4-4.3c11.4-1.1,16.1-6.3,16.8-17.6c0.1-2,0.8-3.9,1.3-5.8
		c0.3-1.2,0.6-2.4-0.7-3c-1.7-0.8-2.3,0.6-3,1.8c-1.3,2.4-1.2,5.1-1.4,7.8c-0.2,5.8-3.9,10.7-9.1,12.5c-1.4,0.5-2.8,1.1-4.3,0.1
		c-3.8-2.6-5.1-0.5-5.6,3c-0.4,2.5-0.7,5-0.7,7.4c0,3.1-1.6,4.2-4.1,3c-11.3-5.6-24.5-4.7-35.8-10.6c-0.9-0.5-2-0.5-2.8-1.1
		c-5.3-4.4-10.9-7.9-19.3-7.2c3.8-4.1,6.7-6.6,11.2-7.3c6.5-1,12.4-3.7,17.2-8.5c2.2-2.2,3.1-4.3,0.6-6.9c-2.6-2.7-0.7-4.5,1.8-5
		c4-0.8,8.3-1.9,11.6,2C-581.9,902.3-580.4,903.1-578.5,902c1.9,1.8-0.4,2.5-1.1,3.4c-2.1,2.5-3,5.5-3.9,8.5c-0.4,1.1-0.6,2.4,0.8,3
		c1.7,0.7,2.4-0.5,3-1.8c0.3-0.6,0.5-1.2,0.6-1.9c1.6-5.3,5-8.9,10.1-10.9c3.1-1.3,6-2.9,8.4-5.3c1.1-1.1,3-2.5,1.7-4.2
		c-1.9-2.2-3.1,0.3-4.4,1.3C-567.8,898-573.1,900.1-578.5,902z M-706.1,826c-0.2-5.1,0.7-10.3-2.2-15.1c-3.3-5.4-6-11.1-8.2-17.1
		c-0.7-1.9-1.5-3.8-3.6-4.6c-0.8-0.3-1.6-0.4-2.3,0.2c-0.7,0.6-0.9,1.5-0.3,2.2c4.1,5.2,4.9,12,8.6,17.3c5.7,8.1,3.8,17.2,3.9,26
		c0,1.4-1.4,3.2,0.7,3.8c2.4,0.6,3.2-1.4,3.3-3.3C-706,832.3-706.2,829.2-706.1,826z M-532.3,871.6c-1.2,4.5-1.7,8.4-1.4,12.4
		c0.1,1.3,0.1,3,1.9,3c1.7,0,1.8-1.7,1.8-3c-0.1-6.8,1.4-12.9,7.8-16.7c0.9-0.6,1.4-1.5,0.8-2.6c-0.4-0.9-1.6-1.2-2.1-0.7
		c-3,2.8-7.1,1.5-10.3,3.1c-3.9,1.9-7.6,2-10.9-1.4c-1-1-2.2-2.7-3.7-1.2c-1.7,1.6-0.1,3,1,4.2
		C-543.6,873.4-538.2,872.4-532.3,871.6z M-692.7,752.5c-1.2-3.2-3.4-4.7-6.2-5.8c-4.5-1.8-9.5-1.6-13.9-4c-4.3-2.4-9-2.1-13.7-2
		c-2.2,0.1-3.7,1.3-4.8,3.1c-0.6,1-0.9,2.3,0.2,3.2c0.9,0.7,2,0.4,2.6-0.5c2.1-2.8,5.5-2.5,7.8-1.7c8.1,2.8,17,3,24.2,8.4
		c0.8,0.6,1.7,1.2,2.7,0.6C-693.3,753.6-693,752.9-692.7,752.5z M-656.3,746.8c-0.2-1.4-1-1.9-2.5-1.4c-5.4,1.6-12.9,13.4-12.1,19.2
		c0.3,2.2,1,4.2-0.9,6c-0.8,0.8-0.7,1.8,0.2,2.6c1,0.8,1.9,0.3,2.7-0.3c2.5-1.8,3.1-4.3,2.2-7.1c-1.5-4.4,0.4-7.8,3.1-10.9
		c1.7-1.8,3.5-3.5,5.3-5.3C-657.2,749-656.3,748.2-656.3,746.8z M-508.3,868.3c0-0.8,0.2-1.8-0.2-2.5c-3.3-5.4-4.8-11.1-3.5-17.5
		c0.2-1-0.6-2-1.8-1.9c-1.2,0-1.6,1-1.8,2c-1.3,5.5-1.4,10.8,1.8,15.8c2,3,2.4,6.2-0.6,8.9c-1.1,1-3,1.6-1.5,3.3
		c1.5,1.7,3.4,1,4.8-0.4C-508.8,874-508.4,871.2-508.3,868.3z"/>
	<path fill="#EF4216" d="M-648,692.5c-2.8,7.4-6,8.5-13,4.4c-4-2.4-7.6-1.7-10.3,2.3c-2,3.1-4.7,3.1-7.4,1.8c-5.4-2.7-9.8-1-13.4,3
		c-1.9,2.1-3.6,2.5-6.1,1.9c-5-1.2-9.4-1.4-12.2,4.3c-1.1,2.3-3.5,3.7-6.8,2.5c-4.1-1.5-7.9-0.6-10.7,3.1c-3,3.9-7,4.9-11.5,4.3
		c-2.5-0.3-3.5,0.7-4.5,2.7c-2.2,4.2-5.4,6.7-10.7,6.8c-4.9,0.1-8,3.9-10.7,7.6c-1.6,2.1-2.5,4.8-5.9,4.6c-0.5,0-1.4,0.4-1.6,0.8
		c-2.5,5.6-7.5,8-12.7,10.5c-2.4,1.2-3.3,4.9-5.8,6.6c-9.9,7.1-18,16.3-24.9,26c-14.2,19.9-23.6,41.8-17.9,67.2
		c5.3,23.7,19.6,40.5,42.5,48.2c17.8,6,35.8,4.2,53.6-2.7c9.2-3.6,18.3-7.8,26.5-12.7c4.6-2.7,11-4,14.1-9.7
		c1.2-2.2,3.5-3.3,6.6-0.8c5.2,4.3,9.7,9.1,13,15c2.5,4.5,0.1,10.4-5,10.9c-2.3,0.2-3.3,0.9-4.4,3c-1.6,3-3.7,6-8,5.5
		c-0.5-0.1-1.3,0-1.4,0.2c-2.9,6.2-10.1,6.3-14.5,10.2c-0.9,0.8-1.8,1.5-2.8,2c-14.3,6.3-28.4,12.6-44,15.7c-20,4-39.1,2-58-4.8
		c-22.1-8-38.7-22.8-50.9-42.6c-9-14.7-14.2-30.7-14.9-47.9c-0.5-11.6,1-23.1,3.9-34.4c2.1-8.2,4.5-16.4,8.3-23.9
		c3.7-7.3,7.8-14.5,12.3-21.4c4.5-7,10.9-12.3,15.1-19.4c3.2-5.5,9-8.2,13.9-11.7c3.1-2.2,6.2-4.3,8.7-7c2.2-2.4,5.3-3.4,7.8-5.2
		c3.6-2.6,6.4-6.2,10.7-8.2c3.6-1.6,6.1-5.8,9-8.9c3.2-3.5,5.7-8.2,11.8-5.6c1,0.4,2.2,0.5,2.3-0.9c0.3-5.5,4.5-5.9,8.4-6.7
		c1.8-0.4,3.5-1.2,5.3-1.3c3.6-0.1,5.9-0.5,7.1-4.9c1.5-5.4,7.8-7.2,13-5.3c3.3,1.2,7,1.8,9-2.5c1.5-3.3,4.1-4.7,7.6-4.5
		c3.7,0.1,6.5-1.3,9.4-3.6c5.3-4.2,11.1-7.5,18.4-4.7c2.2,0.8,5.1,0.2,6.2-2c1.6-3.3,4.2-3.4,7-3.3c4.6,0.2,9.3-0.7,13.8,1.1
		c2.5,1,4.2,0,5.8-2.4c3.1-4.7,6.2-5.1,10.7-1.9c6,4.3,7,4.2,11.6-1.6c1-1.3,2.3-1.3,3.6-1.3c5.3,0,10.6,0,16,0c1,0,1.9,0,2.7,0.9
		c3.3,3.9,6.2,2.7,8.8-0.8c0.9-1.2,2.2-2.2,3.6-1.9c1.7,0.4,1.6,2.2,1.6,3.7c0.1,13,0.2,26,0.2,39c0,3.2-5.3,6.7-8.2,5.3
		c-2.7-1.3-5.1-1.5-7.4,0.6c-0.8,0.7-1.4,1.4-2.4,0.3c-2.9-3-6.7-2.2-9.9-1.5c-3,0.7-4.9-0.4-5.6-2.4c-1.7-4.9-4-3.3-6.6-1.1
		C-648.1,692.6-648,692.5-648,692.5z"/>
	<path fill="#EF4216" d="M-326.9,699.6c-0.9-6.2-2.3-7.4-8.5-5.7c-7.2,2-14.4,2.1-21.7,0.8c-2.7-0.5-4.4,1-6.4,2.1
		c-2.8,1.6-4.8,1.9-4.7-2.6c0.2-12.8,0.2-25.6,0.2-38.4c0-2.7,0.4-4.1,3.9-3.8c6.3,0.7,12.6,0.8,18.9,1c4.3,0.1,7.8,2.3,11.8,3.3
		c2.8,0.7,5.7,1.2,8.3-0.2c5.3-3,9.8-1.4,14.1,2c0.3,1.1,0.6,2,1.9,0.8c1.7,0,3.5,0.1,5.2,0.1c1.2,1,2.2,0.9,2.9-0.7
		c1.4-0.9,2.7-2,4.1-2.8c2.2-1.3,4-1.5,5.8,1.2c2.9,4.5,6.5,7.7,12.8,6.2c4.4-1,8.6,0.3,11.2,4.6c1.6,2.6,3.8,3.4,6.8,3.2
		c3.2-0.2,6.3-0.1,9.5-0.1c3.2-0.1,6.2,0.9,8.1,3.2c3.4,4.2,7.7,5.1,12.5,4.7c4.7-0.4,8.3,1.1,11,5.2c2.6,4,8,2.8,11.4,5.7
		c2.6,2.3,6.9,2.4,8.1,6.7c0.5,1.7,2.4,0.5,3.5,0.3c3.1-0.5,5.6,0.1,7.1,3.1c2,4.1,7.4,4.4,9.5,8.5c0.6,1.2,1.9,2.1,2.2,3.3
		c1.3,4.1,4.2,5.3,8.1,5.2c3.4-0.1,5.3,1,6.4,4.8c1.3,4.5,6.3,5.4,9.7,7.9c0.7,0.5,2.4,0.1,2.8,0.7c4.9,6.3,13.3,8.9,16.5,17
		c1.3,3.3,5.3,4.8,7.4,7.9c9.4,13.8,18.1,28.1,23.2,44.1c10.6,33.2,7.5,64.8-11.7,94.5c-11.3,17.4-26.5,30.5-45.5,38.2
		c-15.7,6.4-32.4,9.3-49.7,7.9c-10.9-0.8-21.5-2.7-31.5-6.3c-6.4-2.3-13.1-4.3-19.4-7.7c-5.5-3-10.4-8.1-17.2-8.9
		c-0.5-0.1-0.9-0.4-1.3-0.7c-3.9-3.3-7.7-6.8-12.8-8.3c-1.7-0.5-3-2.1-3.4-4c-0.3-1.5-1.1-2.1-2.7-2.4c-6.2-1.2-10.8-12.4-7.2-17.5
		c0.4-0.6,1.1-1.5,1.8-1.6c4-0.5,6.2-3.7,8.9-6.1c4-3.8,7.6-3.6,10.5,1.2c1.3,2,2.3,3.2,4.9,3.3c1.5,0.1,3.5,1,4.3,2.2
		c3.5,5,9.6,5.9,14.3,8.2c6.4,3.1,13.1,6.1,20,8.3c10.3,3.4,20.6,6,31.7,5.5c29.2-1.4,51.3-17.7,61.6-45.2c7.4-19.8,4-38.4-4.5-56.9
		c-4.6-9.9-10.7-18.8-17.7-26.9c-4.3-4.9-8.1-10.8-14.1-14.3c-2.2-1.3-4.3-3.3-5.7-5.5c-1.4-2.2-3.3-3.4-5.6-4.5
		c-4.5-2.2-8.2-5.5-10.4-10.3c-0.9-2.2-1.7-4.7-4.9-2.9c-0.7-0.2-1.4-0.4-2.1-0.6c-0.5-2-2-2.3-3.8-2.2c-1-3.7-2.9-5.7-7.3-5.8
		c-4-0.2-7.9-2.2-9.4-6.3c-1.2-3.2-3.3-3.8-6.2-3.7c-4.2,0.1-8-0.1-10.5-4.6c-1.2-2.3-4.2-3.5-7-2.6c-5,1.7-8.3-0.4-11.2-4
		c-3-3.7-6.3-5.1-10.8-2.5c-2.8,1.6-5.4,0.1-7.1-1.9c-4.2-4.9-9.1-5.4-14.8-3.4c-4.4,0.3-1.3-1-2,0c-2.4-0.1-4.7-0.1-7.1-0.2"/>
	<path fill="#EF4216" d="M-810,316.8c-3.3,0.3-6.7,0.6-10,0.9c-1.1-1.3-2.1-1.4-3,0.2c-9.7,2.2-19.5,4.2-28.6,8.5
		c-10.7,5-11.9,8.4-4.7,17.8c7.6,9.9,17,18,26.4,26.2c6.7,5.9,15.5,9.1,21,16.4c0.8,1.1,2.1,0.9,3.1,1.3c4.2,1.7,8.2,3.8,11,7.5
		c1.1,1.5,2.2,2,3.9,2.4c5.2,1.3,10.2,3.3,12.9,8.5c0.5,0.9,0.9,1.6,2.1,1.6c6.9,0,12.7,1.9,15.1,9.3c0.5,1.4,1.2,1,2.3,0.8
		c7.7-1.6,12.2,0.8,15.5,8.1c0.3,0.6,0.9,1.5,1,1.5c4.4-1.8,6.9,2.7,10.5,3.2c2.2,0.3,3.9,1.2,4.9,3.6c1.2,3,4,2.7,6.4,1.7
		c5.4-2.3,9.4-0.5,12.3,4.2c1.6,2.6,3.9,2.7,6.5,2.6c4.8-0.2,9.5-1,13.1,4c1.8,2.5,5.6,1.6,8.5,1.8c4.3,0.3,7.8,1.2,11,4.6
		c3,3.2,7.1,1.8,10.5-0.3c2.7-1.8,5.8-2.2,7.8,0.1c3.7,4.1,8.2,4.2,12.3,2.3c5.9-2.8,12-2.2,18-2.7c2.7-0.2,5.3-0.3,7.8-1.5
		c2.9-1.4,4.3-0.5,4.3,2.9c-0.1,13.8-0.1,27.6,0,41.5c0,2.6-1.1,3-3.3,3c-8.4-0.2-17,0.6-24.1-5.3c-0.8-0.6-2.2-0.5-3.4-0.6
		c-5-0.3-9.8,1.5-14.8,0.9c-0.5-0.1-1.2,0-1.4,0.3c-4.2,6.1-7.5,0.7-10.5-1.2c-3.7-2.3-7.1-2.8-10.8-1.1c-4.8,2.2-8.7,1.7-11.6-3
		c-2.3-3.7-6.1-2.9-9.5-2.7c-3,0.2-5.6,0.6-7.1-2.8c-0.6-1.3-2-1.7-3.4-1.6c-2.3,0.1-4.1-0.7-5.8-2.2c-1.6-1.4-3.7-2-5.6-1
		c-2.4,1.3-3.8-0.3-5.7-0.8c-5.4-1.3-8.6-4.8-11.6-8.9c-1.3-1.7-3.2-1.2-5-0.3c-5.4,2.6-9.4,1.5-11.9-3.9c-1.7-3.7-3.7-5.2-7.7-3.4
		c-4.2,2-8.2-2.2-12.5-0.7c-2-10.2-13-4.1-17.7-9.9c-3.2-4-7.5-6-13.1-6.5c-3.7-0.3-8.1-3.2-10-7.5c-0.6-1.2-1.2-1.9-2.6-1.8
		c-3.6,0.3-6.8-1.3-9-3.7c-6.5-7.3-15.9-10.6-23.3-17c-5.8-5-12.4-9.8-18.3-14.9c-10.9-9.3-20.8-19.6-28.4-31.8
		c-5.7-9.1-10.4-18.4-11.9-29.3c-2.4-16.4,3.1-29.4,15.8-39.6c13.5-10.8,29.7-14.6,46.2-17.3c17.5-2.8,35.1-2.7,52.7-0.5
		c10.6,1.4,21.1,3.8,31.5,6.9c10.7,3.2,21,7.3,30.6,12.4c6.5,3.4,14,5.8,19,12.1c1.8,2.3,5.9,2,8.1,4.5c2.5,2.7,4.4,5.7,8.5,6.9
		c3.1,0.8,1.6,4.7,2.3,7.1c-3.8,6.1-9.5,10.5-14.3,15.6c-2,2.1-4.3,2.2-6-0.1c-2.2-3-5.1-3.9-8.5-4.2l-0.4,0l-0.2-0.3
		c-0.1-1.8-1.1-2.7-2.9-2.9l-0.1-0.1c-1.1-2.8-3.5-2.5-5.7-2.6c-1,0-1.8-0.4-2.3-1.3c-0.1-1.3-0.8-2-2.1-1.9
		c-0.3-0.2-0.6-0.3-0.9-0.5c-0.3-1.2-0.8-1.9-2-0.6c-4-0.1-6.7-3.2-10-4.6c-1.5-1.9-3.6-2-5.7-2c-0.4-0.2-0.9-0.4-1.3-0.6
		c-0.3-1.1-0.6-2.2-1.9-0.9c-2.2,0.3-4.2-0.3-6.1-1.4c-0.9-1.5-1.9-2.9-4-1.5c-2.8,0.3-5.5-0.2-8-1.6c-0.4-1.1-0.9-1.7-1.9-0.5
		c-1.7,0.3-3.4,0.4-5.1-0.3c-0.6-1.8-1.7-1.9-3-0.6c-2.3-0.2-4.8,0.4-7-0.6c-1.1-1.9-2.5-1.6-4-0.4c-0.7,0-1.4,0-2.1,0.1
		c-2-1.4-4-1.4-5.9,0c-1,0-2,0-3.1,0C-808.8,315.4-809.5,315.6-810,316.8z"/>
	<path fill="#EF4216" d="M-609.4,546.5c-0.7,5,1.3,10.2-0.8,15.2c-3.1-0.9-5.7-0.7-7.9,2.1c-3.1,4-6.9,4.2-10.4,0.6
		c-1.2-1.2-2.3-2.3-3.6-0.8c-3,3.5-5.9,1.6-8.9,0.2c-3.3-6.8-5.9-7.7-11.8-2.8c-3.7,3-6.2,0.9-8.8-0.8c-5.9-3.9-12-3.8-17.9-0.7
		c-2.5,1.3-4.3,1.9-6.7,0.2c-2.8-1.8-5.2-1.8-7.9,0.9c-2.6,2.5-6.7,2.7-9.6,0.5c-5.4-4.2-10.6-3-15.7-0.1c-2.3,1.3-4,1.5-6.4,0.2
		c-4.1-2.3-8.5-3.6-13.4-1.8c-2,0.7-4.1,0.4-6.2-0.9c-4.8-3.1-9.8-3.6-14.7,0.1c-2.3,1.8-4.8,0.8-7.1-0.3c-4.5-2.2-8.2-2.6-12.8,0.9
		c-4.1,3.1-9.6,1.7-14.2-0.8c-1.2-0.6-1.9-2.5-3.8-1c-3.8,3.1-8.5,2.5-12.5,1.2c-4.3-1.4-8.4-0.4-12.3-0.9
		c-9.6-1.3-19.3-0.9-28.9-2.5c-6.4-1.1-13.1-1.1-19.7-2c-19.8-2.5-39.7-5-57.8-14.4c-22.4-11.6-27.1-33.8-11.1-53.3
		c12.4-15.1,28.6-24.7,46.6-31.6c13.9-5.4,28.6-7.8,43.3-8.2c6.9-0.2,14.1,0.3,21.2,1c6.5,0.6,12.6,3.2,19.3,2.8
		c5.3-0.3,9.6,3.9,14.6,5.2c3.9,1.1,7.5,3.2,11.8,3.3c3.2,0,6.3,0.9,8,4.1c0.4,0.8,1.4,1.6,2.3,1.8c5.8,1.7,7.2,6.1,6.6,11.3
		c-0.8,6-1.3,12.5-9,14.4c-2.3,0.6-4.4,1.7-6.1-1.2c-0.7-1.2-2-0.9-3.1-0.7c-1.3,0.1-2.9,0.5-3.9-0.1c-4.1-2.5-9-2.5-13.1-4.2
		c-5.3-2.2-10.9-2.8-16.2-3.5c-25.6-3.4-50.5-1.7-72.5,14c-3,2.2-6.2,4.3-8.6,7.8c7.4,2.1,14.5,2.8,21.5,3.5
		c12.7,1.2,25.4,2.3,38.1,3.4c5.7,0.5,11.7-0.6,17.1,1c5.9,1.7,11.6,0.5,17.4,0.7c2.9,0.1,5.7,0.2,7.9,2.3c0.9,0.9,1.8,1,3.1,0.4
		c6.3-2.6,12.5-3.5,17.8,2.3c0.9,0.9,1.4,0.4,2.4,0.1c4.8-1.4,9.7-2.9,14.4,0.1c2.9,1.8,5.8,1.7,9.1,0.9c5.3-1.3,10.7-1.7,16.2,0.1
		c2.8,0.9,5.9,0.9,8.8,1.5c10.6,2.2,21.4,1.8,32.1,2.3c4,0.2,8,0.2,11.6-2.1c0.7-0.4,1.7-0.8,2.4-0.6c8.1,2.4,16.2,1.9,24.4,0.8
		c1.7-0.2,3.1,0.9,4.5,1.8c2.7,1.9,5.7,2.7,9,1.4c6.6-2.7,13.4-1.6,20.2-1c2.8,0.3,5.7,1.1,8.4,0.3c4-1.1,5,0.2,4.6,3.9
		c-0.3,2.8-0.1,5.6-0.1,8.4c-0.9,0.7-0.9,1.3,0.1,1.9c0.5,2,0.5,4.1-0.1,6.1C-609.3,543.1-610.7,544.4-609.4,546.5z"/>
	<path fill="#EF4216" d="M-633,587.6c3.4-2.3,6.7-1.4,10,0.3c0.4,1.6,1,2.1,2.1,0.4c11.1,0.8,11.1,0.8,11.1,12.2
		c0,8.2,0,16.3,0,24.5c0,7.2-3.8,10-10.5,6.9c-3.6-1.6-6.9-1.5-10.6-1c-5.9,0.8-11.8,0.1-17.7-0.1c-6.4-0.3-13.3-2.2-20,1.9
		c-3.9,2.4-9.8,1.7-14-2.2c-4.1-3.8-6.9-3.9-11.4-0.7c-3.5,2.6-8.3,3.3-11.2,1.1c-5.8-4.4-10.2-1.1-14.4,1.5
		c-3.5,2.1-6.1,2.6-9.6,0.7c-3.3-1.8-6.5-1.7-9.8,0.8c-3.1,2.3-6.6,3.3-10.6,0.7c-3-2-6.7-1.7-10,0.1c-3.6,2-6.8,3.1-11,0.3
		c-2.8-1.9-5.9,1.6-8,3.4c-4.1,3.7-8,4.4-12.6,1.7c-1.2-0.7-1.9-0.8-3,0.2c-4.8,3.9-10.3,4.1-16,2.7c-1.2-0.3-2.2-0.5-3.2,0.4
		c-2.8,2.5-6.5,2.6-9.9,3c-24.6,2.8-48.6,8.1-72.2,15.2c-3.6,1.1-7.1,2.9-10.7,4.2c-3.8,1.4-3.5,3.2-1.1,5.8
		c6.3,6.9,14.2,11.5,22.6,15.2c14.3,6.3,29.4,10.3,44.9,12.2c4.9,0.6,10.1,1.1,15.3,0.2c5.6-1,11.5,0.5,17.3,0.8
		c3.1,0.2,5.7,0.4,8.4-1.2c1-0.6,2.3-1.4,3.1-0.2c0.7,1-0.1,2.4-1.1,3c-4.3,2.2-5.8,7.8-11.7,8.8c-2.1,0.3-4.6,3.8-7.1,5.8
		c-6.1,4.7-12,9.8-18.7,13.8c-0.7,0.4-1.7,0.8-2.3,0.6c-6.2-2.2-12.8-1-19.2-1.9c-7-1-14-1.7-20.9-3.2
		c-19.3-4.4-37.7-11.2-53.9-22.5c-12.5-8.8-24.4-19.3-25.3-36.3c-0.8-14.2,6.8-24.6,17.6-32.9c14.3-11,31.2-15.9,48-21.2
		c7.1-2.3,14.4-3.5,21.6-5.4c8.1-2.2,16.4-4.4,24.7-4.8c5.6-0.3,10.3-3,15.7-3.1c0.5,0,1-0.4,1.4-0.3c6.8,2.1,12.6-2.1,18.9-2.9
		c0.7-0.1,1.5-0.5,2-0.2c5,2.7,9.4,1,14-1.2c3.3-1.5,6.4-1.1,9.4,1.8c3.9,3.7,8.3,0.9,12.1-0.9c3.6-1.7,6.5-2.7,10.2-0.5
		c2.4,1.4,5.1,0.9,7.5-0.8c4.1-3,8.2-4.3,13.3-1.4c3.5,2,7.5-0.4,10.8-2.3c3.2-1.8,6.3-2.3,9.5-0.9c5.2,2.3,10.2,1.2,15-0.9
		c2.8-1.2,4.6-1,6.8,0.8c4.2,3.5,8.3,3.4,11.6-0.7c3.2-4.1,6.5-4.4,10.3-1.3c2.7,2.2,6.2,3.3,8.9,1.8c6.2-3.5,12-3.9,18,0.1
		c1,0.1,1.9,0.1,2.5-0.9c3.6-0.1,7.2-0.1,10.8-0.2C-633.7,590.2-633.3,589.1-633,587.6z"/>
	<path fill="#EF4216" d="M-180.7,701.4c4.5-1.8,7.9-2.1,11.8-1.1c4.4,1.1,9.3,0.2,13.6-0.2c22.8-2,45.4-5.6,65.8-17.2
		c5.8-3.3,10.8-7.7,15.8-12.2c3-2.8,1.9-4.4-1.3-5.8c-9.3-4.1-19.1-6.6-28.9-9.3c-8.9-2.4-18.1-4.4-27.1-5.7
		c-9.2-1.4-18.3-3.5-27.5-4.5c-5.7-0.6-11.3-1.7-17.1-2c-6-0.3-11.5-5-18.2-2.2c-1.6,0.7-4.2-0.6-5.5-3.2c-1.8-3.6-7.8-5.5-10.8-3.3
		c-3.8,2.6-7.1,1.9-10.8,0.4c-4.3-1.8-8.6-2.9-12.3,1.4c-1.8,2.1-4,0.4-5.4-0.5c-5-3.1-9.8-3.5-15.2-1.1c-2.4,1-4.9,1.3-6.9-1.8
		c-2.4-3.7-7.2-4.2-11-1.8c-5.3,3.4-9.2,3.1-13.7-0.8c-2.5-2.1-5.3-2.8-8.3-1.5c-3.8,1.7-6.9,1.6-10.7-0.7
		c-3.7-2.2-8.1-1.1-11.9,1.1c-3.6,2.1-6.8,2.5-10.7,0.1c-3.7-2.3-8.4-1.5-12.7-1.5c-5,0-10.1-0.9-14.8,2.4
		c-2.8,1.9-6.8,1.1-10.3,1.1c-2.4,0-3.2-1.3-3.1-3.5c0.7-12.6-1.1-25.2-1.1-37.8c0-2.3-0.5-5.6,3.4-2.3c1.3,1.1,2.7,0.7,4.2,0.3
		c8-2.2,15.8-2.3,24,0.1c4.8,1.5,10.2,1.2,14.7-2.3c2.4-1.8,4.9-1.4,7.3,0.4c4,3.1,8.2,4,12.8,1c2.3-1.5,5.2-1.2,7.5,0.5
		c4.6,3.6,10.6,4,15.3,0.2c2.6-2.1,4.7-2.7,7.5-0.7c4.4,3.3,8.9,5.4,14.6,2.4c2.4-1.3,5.5,0.2,8.1,1.6c3.3,1.8,6.7,2,10.1,0.6
		c5.5-2.1,10.5-1.1,15.2,1.9c2.3,1.5,4.4,2.1,7,0.9c0.1-0.1,0.3-0.1,0.5-0.1c5.6-1.9,11.3,1.9,15.8,1.1c5.1-0.8,10.4-3.9,15.2-1.6
		c4.7,2.2,8.6,2.9,13.8,1.8c3.5-0.7,8,0,11.2,3c0.8,0.7,1.8,1.1,2.8,0.7c4-2,7.9-0.6,11.8,0.1c16,3.2,32.2,5.9,48,10
		c19.9,5.1,39.8,10.9,56.6,23.6c8.4,6.3,14.6,14.2,16.6,24.7c2.4,13.2-3,23.8-11.8,32.9c-11,11.5-24.7,18.9-39.3,25
		c-13.2,5.5-27.1,9.3-41.2,11.3c-6.9,1-14,1.7-21.1,2.2c-7.5,0.6-11-4.4-16.4-6.7c-3.1-1.4-4.5-3.6-5.9-6.4
		c-0.7-1.5-2.9-3.3-4.2-3.2C-173.8,714.2-175.1,705.7-180.7,701.4z"/>
	<path fill="#EF451A" d="M-330.3,329.9c-2.6-2.3-5.3-0.9-7.9-0.7c-2.9,0.3-6,0.8-4.8-4c0.6-2.4-0.7-3.8-3.1-4.1
		c-0.8-0.1-1.7-0.4-2.5-0.3c-2.2,0.4-5.8-2.1-6.3,1.3c-0.4,3,3.3,2.3,5.5,2.6c1.3,0.2,2.3,0.4,2.1,2.1c-0.2,1.3-0.7,2.5-2.1,2.4
		c-3.4-0.3-7.4,1.8-10-2.3c-0.7-1.2-3-2.1-3.2-0.8c-1.1,5.2-4.8,2.2-7.2,2.6c-2.3,0.3-4.6,0.2-6.9,0.9c-3.4,1-6.5,2.4-8.7-2.7
		c-1-2.5-4.4-4.3-6.7-6.4c-4.3-3.8-4.8-9.4-7.4-13.9c-4-6.9-9.7-11.8-15.7-16.4c-4-3.1-6.2-6.6-4.1-11.8c0.8-1.9,0.5-4-0.6-5.8
		c-1.1-1.8-2.6-3.2-4.9-2.5c-2.1,0.6-2.6,2.4-2.6,4.4c0,2,1.2,4.4-0.6,5.7c-2.1,1.6-0.8,6.1-4.7,5.5c-4.2-0.6-8.7-1.4-11.5-5.1
		c-5.7-7.4-5.6-7.5,1.2-14.6c1.8-1.9,4-3.9,2.4-7c-1-2-3-2.8-5.1-2.3c-3,0.6-4.9,2.2-3.5,5.7c0.8,2-2.6,9.5-4.8,10.1
		c-5.2,1.6-9.7,5.2-15.5,5.2c-1.6,0-3.5,0.9-3.2,3.1c0.2,2.1,2.1,2.4,3.8,2.4c2.9,0,5.5-1.3,8.1-2.5c2.8-1.3,5.2-0.9,7,1.8
		c3.2,4.7,8.1,8.3,7.3,15.1c-0.6,5.3-8.3,13.8-13.7,13.9c-3.2,0.1-3.5,1.7-3.5,4.2c-0.1,5-3,8.4-7.7,8c-5-0.4-9.3,2.1-14.1,2.6
		c-2.8,0.3-3.5-0.3-3.4-3.1c1-17.4,0.2-35,3.3-52.3c1.8-10.1,2.1-20.7,8-29.6c5.1-7.7,13.2-10.2,21.8-11.5c1.2-0.2,2.3,0.1,3.3,0.9
		c7.1,6.1,15.8,9.8,23,15.9c9.3,7.9,20.3,6.5,30.8,3.3c5.1-1.5,9-1.3,14,1c6.9,3.2,14.4,5,21.6,7.7c18.1,6.8,31.8,18.5,40.2,36
		c0.7,1.5,3.4,3.6,0.8,5c-2.6,1.3-6.6,3.3-8.7,0.2c-4.2-6.1-9.6-6.5-16.1-6c-6,0.4-12-0.1-18-0.2c-1.3,0-2.9-0.7-3.3,1.1
		c-0.4,2,1.4,2.3,2.8,2.8c0.5,0.2,1,0.3,1.5,0.3c8.1-1.1,15.1,4.1,23,4.3c0.6,0,1.3,0.4,1.9,0.6c8.3,2.8,8.3,2.8,16.8,1.3
		c2.3-0.4,4-0.1,5.7,1.8c4.6,5,9.7,9.6,13.8,15.1c0.5,0.7,1,1.5,1.7,1.8c8.1,3.3,10.2,11.7,14.9,17.8c7.7,10.2,15.6,20.2,23.4,30.3
		c0.8,1,2,1.9,2.5,3.1c0.8,1.7,2.2,4.1,0.4,5.5c-1.8,1.5-4.4,1.4-6.5-0.3c-4.5-3.8-8.8-7.6-13.3-11.3c-3.1-2.6-6.3-2.9-9.3,0.3
		c-0.8,0.9-1.7,1.9-0.9,3.1c0.8,1.2,2.1,1,3,0.1c2.1-2,3.9-1.1,5.7,0.5c2.3,1.9,4.6,3.8,6.9,5.8c0.8,0.6,2,1.5,2,2.2
		c0,8.7,6.5,5,10.3,5c3.3,0,4.2,1,5.5,3.9c4.3,9.9,9,19.7,13.8,29.4c1.9,3.9,1.5,5.8-2.9,7.2c-3.3,1-6.8,1.7-8.6,6
		c-0.9,2.1-4.6,2.8-7.6,2.8c-4.9,0-9.1,1.4-11.8,6c-0.6,1-1.4,2.8-3,1.4c-1.3-1.2-2.6-2.9-0.7-4.7c1.6-1.5,2.9-3.2,4-5.1
		c0.6-1,1.1-2.3-0.1-3.1c-1.2-0.9-2.1,0.1-3,0.9c-4.4,4.3-4.5,4.3-6.7-1.6c-0.4-0.9-0.5-1.9-1-2.8c-1.8-3.7-1.7-6.5,3.2-7.3
		c1.3-0.2,3.5-0.7,3-2.7c-0.6-2.2-2.7-1.6-4.2-1c-2.8,1.1-5.7,1.6-8.8,1.6c-1,0-2.1,0.1-2.4,1.3c-0.2,0.9,0.2,1.9,1.1,1.9
		c3.1,0.1,2.7,2.5,3.4,4.4c1.8,5.3,3.9,10.6,6.1,16.2c-4.7-0.3-8.2,1.3-10.8,5.1c-0.7,1-1.6,2-3.3,1c-5.7-3.4-10.5-1.5-14.5,3.1
		c-1.9,2.2-3.4,3.2-6,0.7c-1.7-1.6-4.2-2.1-6.6-1.3c-2.4,0.8-3.5,0.1-3.3-2.5c0.3-5.6-0.7-11.2,0.1-16.9c0.4-2.6,1.2-2.6,3.1-1.7
		c5.3,2.5,10.6,4.9,15.8,7.3c1.2,0.5,2.4,1.6,3.6,0.3c1-1.1-0.3-2.1-0.4-3c-0.4-3.6,2.1-4.6,5.1-4.6c1.3,0,3,0.6,3.1-1.3
		c0.1-2-1.5-2.9-3.3-3c-2.9-0.1-5.2,1.1-7,3.3c-2.1,2.5-4.2,2.4-7.4,1.5c-10.2-3-14.6-8.8-12.8-19.7c1-6.3,0.2-13,0.6-19.8
		c1.4,2.7,7.4,1.3,5.4,7.5c-0.8,2.7,2.1,5.4,4.8,7c0.9,0.5,2.1,0.5,2.6-0.6c1-2.1-1.5-2.7-1.9-4.3c6.3,2.8,11.7,6.2,14.4,12.9
		c0.7,1.8,2.1,3.4,3.3,5c0.7,1,1.8,1.8,3,1.1c1.6-1,0.8-2.3,0.1-3.4c-4.3-6.6-7.9-13.6-15.6-17.7c-5.4-2.9-9.7-8-14.5-12.1
		c-1.9-1.6-2.1-3.5-2.2-5.8c-0.6-15-1.4-29.9-2.1-45.1 M-333.8,334.2c-0.1,0.1-0.2,0.3-0.3,0.4 M-375.6,315.6c1.4-0.9,3.7,2,4.7-0.4
		c1-2.5-1.6-3.4-3.2-4.3c-2.4-1.4-2.8-3.4-3.5-5.9c-1.3-4.5,0.8-6.8,3.5-9.3c1.1-1,3.3-2.6,0.9-3.8c-2.1-1-2-2-1.8-3.7
		c0.2-1.4-0.2-2.7-1.7-3.2c-1.4-0.4-2.6,0.3-3.6,1.3c-1.8,1.7-1.5,3.5-0.3,5.4c0.7,1.2,0.9,2.5-0.1,3.7c-0.5,0.7-1.1,1-2.1,0.7
		c-4.6-1.5-6.3-6.4-3.3-10.2c1.2-1.5,1.5-2.5,0.3-3.9c-0.9-0.9-1.2-2.7-2.9-2.4c-2,0.3-1.7,2.1-1.9,3.5c-0.4,3.1-1.4,4.4-4.3,1.7
		c-1.2-1.1-2.7-2-4.1-2.8c-0.9-0.5-2-0.6-2.7,0.4c-0.8,1.2-0.3,2.2,0.8,3c2.2,1.7,4.4,3.5,6.7,5.1c3.2,2.3,4.8,6.1,7.8,8.5
		c-1.8,2.3-3.7,4.6-5.6,6.8c-0.4,0.5-1.1,0.8-1.6,1.2c-1.7,1.7-2.1,3.6-0.1,5.1c1.6,1.2,3.7,3.1,5.5,0.3c1.5-2.2,4-3.3,5.9-2.6
		c1.9,0.7,1.8,3.6,2,5.8c0.3,2.3-0.8,6.2,2.3,6.2C-374.2,321.8-377,317.7-375.6,315.6z M-302.6,377.1c-2.9-3.7-5.4-7-8-10.2
		c-0.9-1.1-2-1.9-3.5-1.1c-1.4,0.8-0.9,2-0.1,3c5.9,7.4,11.3,15.2,16.4,23.1c0.6,1,1.6,1.9,2.9,1c1.2-0.8,0.9-2.1,0.3-3.1
		c-1.3-2.1-2.5-4.3-4.1-6.2c-0.9-1-1.8-1.8-0.7-2.8c2.5-2.3,1-5.8,2.7-8.3c0.6-0.9,0.3-2-0.8-2.5c-1.1-0.5-2.1,0-2.5,1
		C-300.9,372.7-301.6,374.5-302.6,377.1z M-337.4,317.4c-3.2,0.3-9.2-3.3-9.6-6c-0.2-1.4,1.2-3.9-1.8-3.4c-1.7,0.3-3.3-0.7-4.9-0.1
		c-0.8,0.3-1.5,1.6-0.9,1.9c4,2.2,3.8,8.3,9.4,9.3C-342,319.5-339.9,318.1-337.4,317.4z M-357.9,306.7c-1.3-2.8-5-1.4-7.2-3.1
		c-1-0.8-2.7,0.6-2.7,2.1c0.2,5.1,5.7,0.5,7.3,3.8C-360.2,310.1-358.2,308.8-357.9,306.7z"/>
	<path fill="#EF451A" d="M-364.6,896.4c11.6-2.8,17.2-11.3,22.4-20c0.7-1.3,1.9-3.5-0.1-4.5c-2.5-1.2-2.7,1.5-3.6,3
		c-3.4,5.8-7.3,11.1-12.9,15c-2.7,1.9-5,2.2-7.4-0.5c-5-5.5-8.9-11.6-12-18.3c-1.1-2.4-0.5-4.5,1.3-6.4c2.8-2.9,5.6-5.7,8.2-8.7
		c1-1.1,2-2.8,0.4-4c-1.7-1.4-2.5,0.5-3.5,1.5c-2.6,2.8-5.3,5.5-7.9,8.3c-1,1.1-1.7,2.4-2.5,3.7c-0.8,1.2,0,4-1.5,3.6
		c-1.9-0.4-4,0.3-5.7-1.2c-4.4-3.6-8.6-7.3-11.8-12.1c-1.2-1.8-1.9-4.2,0.7-5.1c9.6-3.4,14.2-11.6,18.9-19.5
		c1.4-2.4,3.2-2.9,5.8-2.8c12.8,0.3,25.6-0.6,38.3-1c4-0.1,4.9-1.9,5.2-5.5c1-13.1,1.8-26.1,2.2-39.2c0.3-8.8-2.7-17.5-1.7-26.3
		c0.2-1.5,0-3,0-4.5c0.3-6.5,4.2-9.1,10.2-6.5c2.2,0.9,4.1,0.9,6.3,0.5c4.6-0.9,5.2-2.3,2.4-6.3c-2.3-3.2-3.6-6.6-3.1-10.7
		c0.5-4,2.4-6.3,6.3-7.4c2.8-0.8,5.9-0.7,8.5-2.6c1.7-1.2,1.8,1.1,2.3,2c2.9,6.3,5.7,12.8,8.6,19.1c3.2,7,9.2,10.4,16.4,11.5
		c2.9,0.5,5.6,0.9,7.7,2.9c0.9,0.8,1.9,1.5,3.1,0.7c1.3-0.9,1.2-2.4,0.6-3.6c-2-4.2-4.9-7.5-9.5-9.7c2.9-3,5.1-6.4,7.3-9.8
		c4.9-7.7,18.3-12.8,25.4-7.7c5.5,3.9,9.7,9.1,17,10.6c1.9,0.4,3.4,5.4,4.1,8.5c0.4,1.8-0.7,4.5-2,6c-2.1,2.5-3.7-0.4-5.3-1.4
		c-1.6-0.9-2.7-0.5-4,0.6c-3.6,3.2-7.4,6.1-11.1,9.3c-4.5,3.9-8.9,7.4-15.5,6.7c-3.1-0.3-4.8,2.6-6.8,4.6c-0.7,0.8-0.8,1.8,0.1,2.7
		c0.9,0.9,2,0.6,2.6-0.2c2.6-3.3,6.3-3,10-3.4c4-0.4,6.9-3.1,9.9-5.5c3.5-2.9,6.8-5.8,10.2-8.8c2.4-2.1,4.7-1.3,6.8,0.2
		c2.3,1.7,0.7,3.7-0.1,5.3c-3.1,6.4-6.9,12.6-8.2,19.8c-0.4,2-1.6,2.5-3.6,2.4c-3.8-0.1-7.6,0.1-11.5,0.3c-1.5,0.1-3.4,0-3.5,2
		c-0.1,2.2,1.9,1.9,3.3,1.9c3.3,0,6.7-0.1,10-0.2c2.4-0.1,3.3,0.9,2.6,3.4c-2,7.2-4.1,14.3-10.5,19.3c-2.1,1.7-3.7,2.1-5.5,0.1
		c-2.7-3-6.7-4.7-5.2-10.5c1.6-6.1-6.6-16.5-12.7-18c-1.2-0.3-2.4-0.4-3,0.9c-0.8,1.7,0.4,2.4,1.7,3c4.2,1.8,7.2,4.7,8.9,9
		c0.9,2.3,2,4.5,0.4,7.1c-1.1,1.8-0.6,3.9,1,5.5c0.8,0.8,1.6,1.7,2.4,2.5c6.8,7.2,6.8,7.2,2.1,15.8c-1.6,2.9-3.5,5.7-4.9,8.7
		c-1.8,3.8-3.7,3.1-5.6,0.2c-2-3-3.8-6.2-5.6-9.4c-1.9-3.4-4.2-6.4-8-7.9c-1.2-0.4-2.3-0.6-3,0.7c-0.5,1.1,0.1,2.1,1,2.5
		c5.8,2.6,7,8.6,10.3,13.1c0.6,0.8,0.8,2,1.5,2.5c6.3,4.2,3.8,8.7,0.4,13.1c-2.7,3.6-5,8.6-8.6,10.1c-4.6,2-6.6-4.6-10.2-6.8
		c-3.9-2.4-7.1-5.9-11.4-8c-2.8-1.3-5.5-2.2-8.5-2.4c-4-0.3-6-2.4-5.5-6.6c0.2-1.3,0.4-2.6,0.4-4c0-1.7,1.6-4.2-0.9-4.7
		c-2.8-0.6-2.7,2.3-3,4.1c-1.1,6-3.5,10.4-8,14.8c-1.5,1.5-2.8,3.3-4,5.1c-0.8,1.2-2,2.8-0.2,3.9c1.7,1,2.6-0.7,3.5-1.8
		c0.4-0.5,0.7-1.1,1.1-1.7c3.7-4.7,7.9-7,14.5-5.8c11.1,2,18.5,9.2,26.3,16.2c1.4,1.3,1.6,2.4,0,3.7c-1.2,0.9-2.1,2.4-3.4,2.9
		c-7.4,2.9-13.1,8.6-20.2,12c-3.3,1.6-6.3,7-5.5,11.3c0.5,2.4,0,3.4-1.9,4.8c-8.9,6.5-16.5,14.5-26.5,19.5
		c-4.8,2.4-8.3,1.7-11.1-2.5C-355.1,906-359,900.8-364.6,896.4z M-292.7,781c4.1,3.1,5.5,3.7,8.1,3.6c1.5-0.1,3.3,0,3.3-2.1
		c0-1.8-1.5-2-2.9-1.9c-3.6,0.2-4.6-2.2-5.2-4.9c-1.7-6.9-1-8.2,5.4-11.2c1.2-0.6,3.5-0.8,2.7-2.8c-0.8-2-2.8-1.3-4.4-0.8
		c-2.7,0.9-5.1,2.8-8,2.7c-5.3-0.1-7,3.3-7.4,7.6c-0.6,6.5-3.4,13-0.8,19.7c0.3,0.7-0.4,1.9-0.9,2.7c-2.2,3.5-4.1,7.3-7.2,10.1
		c-3.4,3.1-4.9,7-6,11.3c-0.3,1.3-0.9,2.8,0.6,3.5c1.9,0.8,2.8-0.9,3.1-2.3c1.1-4.3,3.6-7.6,6.2-11.1
		C-300.5,797.9-294.2,791-292.7,781z M-358,844.2c0.1-3.8-2.5-5.7-4.1-8.1c-0.9-1.4-2.4-2.2-3.8-1.2c-1.9,1.3-0.2,2.5,0.6,3.7
		c1.5,2.2,4.5,4,2.5,7.3c-4.1,6.9-0.2,11.6,4.5,16c1.3,1.2,2.8,3.9,4.8,1.6c1.6-1.8-0.7-3.2-2-4.4c-4.1-3.6-6.5-7.5-2.9-12.9
		C-358.1,845.6-358.1,844.6-358,844.2z"/>
	<path fill="#EF451A" d="M-434.3,832.5c10.1,0.5,20.2-1.4,30.4-0.3c4.2,0.5,8.4-2.6,12.9-2.7c4.2-0.2,4.4,0.9,3,4.4
		c-2.6,6.6-7.7,10.2-13.7,13c-3.4,1.6-3.9-1.1-5-3.1c-1-1.8-0.5-5.8-3.7-4.6c-2.8,1.1-0.7,4.3,0.2,6.1c4.4,9.6,8.2,19.5,17.7,25.5
		c2.9,1.8,5.6,4.4,9.5,3.2c2.4-0.7,2.3,1.6,2.9,2.5c3.2,5.5,6.5,10.8,10.9,15.5c0.8,0.8,1.1,1.6,1,2.7c-0.4,3.5,1.6,5.8,4.1,7.5
		c5.5,3.8,7.6,10.5,12.5,14.8c1.3,1.2,0.4,2-0.7,2.6c-4.8,2.7-9.6,5.5-15.3,5.7c-4.2,0.2-8,1.3-11.2,3.7
		c-9.9,7.6-21.5,10.2-33.5,11.7c-0.8,0.1-1.7,0.2-2.5,0.4c-6.8,1.2-7.7,0-5.6-6.9c2.3-7.3,6.1-13.8,11.1-19.8
		c4.6-5.6,9.2-7.5,15.8-5c1.7,0.6,2.9-0.6,2.2-2.1c-2-4.7-1.8-9,1.1-13.3c0.6-0.8,0.5-2-0.5-2.6c-1.2-0.7-2.3,0.1-3.1,1
		c-2.4,2.7-2.5,6.1-2.7,9.4c-0.1,1.4,0.7,3.2-1.7,3.5c-2.3,0.3-4.8,0.7-6.5-0.7c-1.3-1.1-1.5-3.3-0.4-5.1c1-1.5,2-3,2.9-4.6
		c0.5-0.9,0.5-2-0.5-2.7c-1-0.7-1.9-0.2-2.6,0.6c-2.9,3.5-6.1,7.1-3.7,12c1.2,2.5,0,3.6-1.3,5.1c-6,6.3-11.5,12.9-13.4,21.8
		c-0.7,3.1-1.5,6.1-1.4,9.3c0.1,2.5-0.9,3.7-3.4,3.8c-1.7,0.1-3.4,0.7-5,0.4c-12.7-2.3-26.4,2-38.2-6.1
		c-7.4-5.1-11.9-11.7-13.5-20.6c-1.8-10.3-1.8-20.5-0.9-30.8c0.6-6.9-1.7-13.5-1.8-20.4c-0.2-10.2-0.6-20.3,0.1-30.5
		c0.2-2.5,0.8-3.6,3.6-4.3c8.2-1.9,16.5-1.5,24.7-2.7c3.1-0.5,5.5,2.1,8.1,3.4c1.6,0.8,1.2,4.2-1.3,5.6c-2.8,1.5-2.3,3.5-0.3,4.5
		c7,3.4,10.8,10.7,17.8,14.1c1.2,0.6,2.3,2,3.5,1c1.7-1.3,0.3-2.5-0.5-3.8c-2.1-3.6,1.7-3.9,3.3-5.3c1-0.9,3.8-1.3,2.7-2.7
		c-1.5-1.8-2.3-4.2-4.2-5.5c-0.9-0.6-1.7,0.6-2.2,1.5c-0.7,1.1-1.3,2.3-2.1,3.4c-3.6,4.7-4.4,4.7-8.1,0.2c-2.5-3-5.9-5.4-4.1-10.3
		c0.9-2.5,1.6-4.1,4.8-3.5C-439.7,832.8-436.9,832.5-434.3,832.5z M-455.6,877.3c-7.6,4-13,1.2-13.5-6.4c-0.1-1.1-0.2-2.1-1.4-2.3
		c-1.7-0.3-2.3,0.9-2.6,2.3c-0.6,3.1-0.8,6.3,2,8.2c4.1,2.8,8.3,5.7,13.7,3.9c9.2-3.2,18.1-7.4,28.4-6.6c4.6,0.4,4.6,1.6,2.7,4.8
		c-0.2,0.3-0.4,0.6-0.5,0.9c-1.4,3.9-3.6,7.4-6,10.8c-0.8,1.2-1,2.9,0.4,4.1c0.7,0.6,1.7,0.4,2.2-0.3c4.1-5.5,7.5-11.5,8.1-18.3
		c0.2-2.2,0.5-2.8,2.2-3.2c1.5-0.3,3-0.3,4.4-0.6c1.6-0.3,3.7-0.6,3.3-2.8c-0.4-2.1-2.4-1.4-3.8-1.1c-6.4,1.2-12.7,2.4-19.3,2
		c-3.5-0.2-6.9,0.5-10.2,1.8c-2.8,1.1-5.4,2.1-8.1-0.7c-1.5-1.5-3.9-1.7-6.1-1.8c-1.5,0-3.3-0.2-3.4,1.9c-0.1,1.8,1.5,1.9,2.8,2
		C-458.6,875.9-457.1,876-455.6,877.3z M-466.9,900.7c-3.3-0.1-5,0.7-5,2.1c0,1.2,0.9,1.8,1.9,1.8c8.5,0.5,15.6,5.6,23.9,6.8
		c4.3,0.6,8.3,2.5,10.9,6.4c0.7,1,1.7,1.9,2.9,1c1.5-1,0.9-2.4,0.1-3.5c-1.9-2.8-4.4-5.1-7.6-6.2c-8.4-2.8-17-4.6-25.1-8.2
		C-465.6,900.7-466.5,900.7-466.9,900.7z"/>
	<path fill="#EF451A" d="M-533.7,257.5c-4.5-0.4-6.6,1.2-8,5c-1.5,4-5.7,6-9.1,8.3c-2.1,1.5-4-0.7-5.6-2c-1.1-0.9-1.8-3-3.4-1.2
		c-1.4,1.4-0.5,3.2,0.8,4.4c0.8,0.8,1.9,1.2,3,1.8c1.8,1,2.7,1.6,2.2,4.4c-0.7,4.5,1.5,8.6,5.2,11.5c1,0.8,2.3,1.4,3.4,2.1
		c1.4,0.9,1.2,2.3,1,3.6c-0.2,1.8-1.6,1.2-2.7,1.2c-1.5,0-3-0.1-4.5,0c-3,0.1-5.2,0-7-3.5c-2.5-5-7.5-5.4-10-1.8
		c-0.6,0.9-1.1,1.8-0.3,2.7c0.6,0.7,1.4,0.6,2.3,0.4c5.1-0.8,6.3,0.6,5.1,5.6c-0.9,3.9,0,8-1.9,11.7c-0.4,0.7,0,1.8,0.7,2.2
		c1,0.6,2.1,0.2,2.6-0.8c1.1-2.5,5.5-3.5,2.5-7.9c-1.6-2.3,0-4.8,3.9-4.9c6.6-0.2,12.4,0.5,17.1,6c3.1,3.6,7.4,6.2,10.8,9.6
		c3.6,3.5,3.8,7.9,0.8,10.4c-2.2,1.8-4,2.3-6.5,0c-1.5-1.3-5-6-5.4,1.1c-0.1,1.6-1.5,0.9-2.3,0.9c-11.7-1.1-23.4-0.3-35.1-0.8
		c-9.7-0.4-19.6-1.5-29.3,0.5c-4,0.8-7.1-3.2-11.3-2c3.3-2.2,6.6-3.8,10.6-2.9c3.9,0.8,7.9,1.5,11.9,1.2c2-0.1,3.9-0.7,3.3-3.2
		c-0.5-1.9-1.9-2.2-3.9-1.4c-3.2,1.4-6.5,0.2-9.8-0.4c-1.5-0.2-1.6-1.2-2.1-2.3c-2.2-4.5,0.8-8.4,1.5-12.5c0.3-1.6,1.5-1.3,2.8-0.8
		c3.5,1.3,6.9-0.4,10.3-0.5c1.3-0.1,2.7-0.8,2.4-2.5c-0.3-1.5-1.7-1.4-2.8-1.3c-2.6,0.1-5.1,0.6-7.8,0.2c-3.1-0.4-3.8-1.8-4.2-4.3
		c-0.4-2.7,0.7-3.7,3.1-5.2c7.2-4.1,15.5-6.1,21.9-11.9c1.1-1,3.1-1.5,2.3-3.3c-1-2.4-2.8-0.7-4.2-0.2c-0.9,0.3-2.1,0.6-2.6,1.4
		c-4.4,5.9-12.2,5.6-17.5,9.7c-1.9,1.5-3,0.5-3.7-1.4c-0.6-1.7-2.4-3.6,0.7-4.9c2.1-0.9,4.2-2.1,6.1-3.4c1.8-1.2,3.4-2.9,2.7-5.4
		c-0.6-2.3-2.4-3.1-4.4-3.6c-4.2-1-8.5-1.8-12.6-3c-1.8-0.5-4.3-1.2-4.7-3.2c-0.2-1.6,2.1-2.3,3.3-3.4c3-2.7,6.6-4.8,10.5-5.7
		c17.3-3.9,32.5-13.6,49.8-17.6c7-1.7,6.4-1.9,7.6,5c0.6,3.7-0.1,9,6.2,10.2C-535.6,250.2-536,254.7-533.7,257.5z"/>
	<path fill="#EF451A" d="M-688.6,399.5c-4.1,5-8.9,8.5-13.6,12.3c-2.6,2.1-4.9,4.6-6.5,7.5c-0.8,1.3-1.1,3.1,0.5,4
		c1.7,1,2.1-0.9,2.8-1.9c6.9-8.9,15.5-16.6,24.6-22.3c7.9-4.9,16.5-9.8,25.3-13.5c1.3-0.5,3.1-2.3,4.4-0.3c1,1.5-0.4,2.5-1.6,3.6
		c-2,1.7-1.1,4.4-1.3,6.6c-0.2,2.7-0.2,5.3-0.1,8c0.1,5.9-0.9,7.3-6.8,8.1c-1.4,0.2-2.7,0-3,1.7c-0.2,1,0.1,2,0.9,2.7
		c1.2,1,2.5,0.5,3.7,0c5.7-2.3,5.7-2.2,7,3.6c1.9,8.6,1.2,17.2,0.4,25.8c-0.1,0.6-0.1,1.6-0.4,1.8c-2.6,1.4-5.8,0.2-8.4,2.5
		c-2.8,2.4-5.5,1.2-7.4-1.8c-1.4-2.1-6.2-0.6-5.5-4.2c0.4-1.9,3.6-3.2,5.5-4.8c3.3-2.8,4.1-6.7,4.7-10.7c0.2-1.3-0.8-2.1-1.7-2.9
		c-6.4-6.2-13.9-8.8-22.8-7c-3.3,0.7-6.5,1.3-9.8,2c-1.4,0.3-2.7,1.1-2.3,2.7c0.4,1.8,1.9,1.3,3.3,1c3.9-0.8,7.8-1.6,11.8-2.2
		c6-0.9,11,1,15.5,5.2c1.9,1.8,2,3,1.2,5.1c-1.1,2.9-3.4,4.5-5.7,6.1c-2.1,1.5-4.6,2.4-6.5,4.4c-1.5,1.6-4.4,2-5.9,0.2
		c-3.5-4.3-8.1-4.1-12.8-4.1c-2.8,0-4.7-0.6-6.8-2.9c-3.4-3.8-7.7-7.1-13.6-4.5c-1.8,0.8-3.3,0.7-4.6-1.3c-2.3-3.5-6.9-2.8-10.1-5.1
		c-2.5-1.8-3.5-3.1-2.1-6c4.7-9.6,8-19.7,10.3-30.2c1.6-7.6,9.4-10.9,17.1-8.4c2.2,0.7,1.4,2.7,1.7,4.2c0.3,1.6,0.1,3.8,2.5,3.5
		c2-0.2,1.8-2.2,1.5-3.6c-1.1-3.8,1.1-4.2,4-4.3c7.9-0.3,15.5-2.4,22.8-5.2c6.3-2.4,10.6-8,16-11.8c0.7-0.5,1.2-1.3,1.9-1.6
		c5.2-2.9,7.3-1.7,7.3,4.2c0,0.7,0,1.3,0,2c0,12.5-0.7,13.4-12.6,17.4c-1.2,0.4-2.6,0.4-3.6,1.4c-8.5,9-19.6,7.9-30.4,7.6
		c-1.1,0-2.2-0.7-3.2-1.2c-1.2-0.7-2.5-1.7-3.4-0.1c-1,1.6,0.3,2.9,1.5,3.7c2.8,1.9,6,1.7,9.1,1.9
		C-692.4,398.8-690.7,398.2-688.6,399.5z"/>
	<path fill="#EF451A" d="M-607,301.5c-0.5,2.2-0.7,3.7-1.1,5.1c-1.6,5.9-2.4,6.1-7.9,3.5c-1.5-0.7-3.5-2.8-4.8-0.5
		c-1.4,2.5,1.6,3.1,3.1,4.1c2,1.3,4,2.4,6.5,2.2c1.1-0.1,1.9,0.5,2,1.7c0.1,1.2-0.4,1.9-1.5,2.3c-5.5,2-10.9,2.9-16.1-0.9
		c-1.5-1.1-2.2-2-1.7-4.1c0.9-3.7,0.9-7.6,2.8-11.1c0.7-1.3,1.5-3.1-0.2-3.9c-2.2-1-3,1.2-3.5,2.6c-2.6,7.5-4.5,15.3-5.5,23.2
		c-0.3,2.4-0.7,3-3,3.1c-5.6,0.3-9.2,3.6-10.4,9.2c-1,4.8-2.9,8-8.7,6.6c-3.1-0.7-6.2,0.3-9,2.1c-5.6,3.7-7.3,3.1-12.3-1.9
		c-4.7-4.8-7.5-10.8-11.3-16.1c-0.9-1.3-0.9-2.3,0.1-3.6c2.8-3.7,5.3-7.6,9.2-10.5c10.7-8,19.4-18.3,29.7-26.8
		c1.9-1.6,2.8-4.4,4.1-6.8c1.3-2.6,2.8-2.8,4.2-0.3c1.4,2.5,3.3,4.5,5.8,6.1c1.9,1.1,3.7,2.7,0.9,4.9c-0.8,0.6-1,1.8-0.1,2.6
		c0.9,0.8,1.8,0.4,2.8,0c3.6-1.7,3.1-3.8,2-7.3c-1.6-5-6.5-6-8.9-9.8c-1.4-2.1-0.9-3.1,0.7-4.5c5.2-4.2,11.6-5.6,17.6-8.1
		c0.9-0.4,2.5,0,3.3,0.6c5,3.7,10.8,4.8,16.8,5.5c1,0.1,2.3,0.1,2.5,1.2c0.3,1.4-1.1,1.8-2.1,2.5c-0.7,0.5-1.4,0.8-2.2,1.2
		c-6.4,2.9-6.7,3.7-4.3,10.2c1.7,4.6,1.7,8.7-3,11.8c-1.5,1-3.5,2.3-2.4,4.3C-611.6,304.3-609.5,302.3-607,301.5z"/>
	<path fill="#EF451A" d="M-758.3,464.9c1.8,3.9,4.6,6.7,8.5,8.7c2.5,1.3,4.9,1.9,7,0.4c3.2-2.3,5.1-0.6,6.3,1.9
		c1.3,2.6,3,3.8,5.8,3.9c1.8,0,3.2,0.7,4.4,2c1.1,1.1,2.6,2.5,3.9,1.8c4.4-2.3,7.7,0.8,11.5,1.6c1.9,0.4,3.3,0.8,4.4,2.6
		c1.4,2.2,4,2.6,6.3,2.2c5-0.9,9.1,0,12.1,4.5c1.9,2.7,5.6,2.5,8,4.8c3.4,3.2,6,6.6,7.7,10.9c0.7,1.6,1.7,4,3.8,3
		c2.6-1.2,0.4-3.1-0.3-4.6c-1.4-3.4-2.9-6.7-5.6-9.4c-0.7-0.7-2.3-1.3-1.5-2.7c0.7-1.2,2-1.7,3.4-1.7c4.2-0.1,6.9,3,9.8,5.2
		c2.3,1.7,4.8,2.8,6.6,0.8c2.7-2.8,5.6-2.9,8.8-2.1c3,0.8,5.1-1.8,8.1-1.5c3.3,0.3,5,3.1,8,3.6c4.8,0.8,9.4,2,14.3,1.2
		c4.6-0.8,6.3,2,6.6,5.8c0.8,9.7,0.7,9.6-9,9.7c-4.9,0.1-9.6-0.9-14.3-1.5c-3.8-0.5-7.7-1.2-11,1.5c-1.2,0.9-2,0.5-3.1-0.2
		c-5-3.6-10.5-3.8-16-1.6c-3.2,1.3-6,0-8.7-0.7c-4.6-1.3-8.7-0.8-13.1,0.7c-7.1,2.4-14.6,0.9-21.8,0.3c-2.6-0.2-3.7-5.2-6.5-7
		c-3.9-2.3-2.1-5.1-1.1-8.1c1.3-4-0.1-8.5,1.9-12.5c0.4-0.7-0.1-1.7-1.1-1.9c-1.2-0.3-2,0.4-2.4,1.3c-0.8,1.8-1.4,3.7-2.1,5.6
		c-2,4.8-5.6,8.2-9.2,11.7c-0.9,0.9-2.2,1.8-2.6,3c-1.2,3.9-3.5,4.1-7.1,3.8c-5.9-0.5-6.5-0.7-6.2-6.8c0.3-5.1,2.5-9.6,4.1-14.3
		c0.5-1.4,1.6-3-0.5-3.8c-1.8-0.7-2.7,0.9-3.2,2.4c-2.3,6.9-6.1,13.5-3.5,21.1c0.5,1.5-0.5,1.6-1.4,1.9c-6.2,2-10.6-0.2-15.1-5.2
		c-3.5-3.9-3.6-8.7-5.5-12.9c-0.5-1.1-0.4-2.5,0.5-3.3c5.9-5.1,5.9-12.1,5.5-18.8C-763.1,468.1-761.3,466.5-758.3,464.9z"/>
	<path fill="#EF451A" d="M-526.2,283.2c-0.4,3.1-0.7,5.4-0.9,7.7c-0.1,1.5-0.2,3.2,1.8,3.6c2,0.3,2.6-1.3,2.9-2.8
		c0.8-3.9,2-7.7,3.3-11.5c0.7-2.1,1.2-3.9,3-5.3c1.1-0.9,2.1-2.5,0.7-3.9c-1.3-1.3-2.3,0-3.4,0.8c-2.7,2.1-5.2,5.2-9.3,2
		c-0.7-0.6-2.7,0-3.8,0.6c-5.4,3-10.9,0.7-16.6,0.4c3.6-2.8,5.8-7.4,11.1-7.8c0.9-0.1,1.9-0.5,1.8-1.4c-0.9-5.9,4.2-4.6,7-5.8
		c1.6-0.7,4.3-0.1,3.9-2.7c-0.3-2.1-2.7-1.8-4.2-1.4c-2.7,0.8-3-0.3-3.1-2.6c-0.1-3-1.7-5.8-4.2-7.1c-5.6-2.9-3.4-8.5-4.8-12.7
		c-0.5-1.4,1.2-1.7,2.3-1.9c7.8-1.8,15.6-1.5,23.3-0.3c8.1,1.2,14.1,10.5,15.5,20c3.5,23.9,2.8,48.1,5.9,72c0.5,4.2-1.7,3.5-4.2,2.8
		c-3.4-0.9-5.5-4.5-9.3-4.5c-5.5,0.1-8.7-1.4-11.8-7.3c-3.8-7.3-11.1-12.8-19.6-15.7c-2.4-0.8-2-5.6,0.8-7.6
		C-534.4,288.4-530.5,286-526.2,283.2z"/>
	<path fill="#EF4216" d="M-350,452.5c4,1.5,8.1,2.6,12,4.4c3.7,1.7,8,2.6,10.7-2.4c1.2-2.3,3.5-2.9,6-2.3c1.7,1.1,1.5,1.5,2.6,1.6
		c0.8,0.8,1.7,1.5,2.5,2.3c1.2,5.6,4.5,10.3,5.7,16.1c1.4,6.3,1.5,12.2,0.3,18.4c-3.3,5-7.9,6-13.4,4.5c-3.9-1.1-7.8-1-11.8-0.3
		c-9.6,1.6-18.9,4.7-28.8,4.2c-0.9-1.5-2.4-1-3.7-1.1c-0.4-14.6-0.6-29.2-0.2-43.8c0.1-2.4,1.2-3.2,3.4-3.2c3.8,0,7.6-0.2,11.5-0.3"
		/>
	<path fill="#EF451A" d="M-725.4,639.5c-2.3,3.6-4.5,7.3-6.9,10.9c-2.1,3.1-0.8,5.7,0.8,8.3c2.7,4.4,2.2,6.4-2.3,8.9
		c-1,0.5-2.1,1.2-2.7,2.1c-2.2,3.5-4,6.8-8.1,1.5c-1.3-1.6-3.8,0.3-5.5,1.1c-3.1,1.4-4.5,1.8-5-2.9c-0.8-8.3-1.8-16.5,0.7-24.7
		c0.4-1.2,0.2-2.5-1.1-2.9c-1.8-0.5-2.3,0.8-2.6,2.2c-1.5,6-2.8,12.1-1.6,18.2c0.8,4.5,1.4,9,0.9,13.4c-0.4,3.5-1.7,7.3-6.3,8.1
		c-2,0.4-3.9,0.9-5.8,1.4c-6,1.7-6.8,1.1-7-5.4c-0.3-8.8-0.7-17.6,1-26.3c0.4-2.2,0.1-4.3-0.3-6.4c-0.8-4.5,1.4-7.4,5.9-6.7
		c5.1,0.8,9.9,0.4,14.5-2.1c1.9-1,3.9-0.9,5.7,0.3c4.1,2.6,8.4,2.7,12.1,0.1C-734.1,635.1-729.9,636.6-725.4,639.5z"/>
	<path fill="#EF451A" d="M-250.3,586.2c1.9-1.9,3.8-3.8,5.5-5.7c1.1-1.2,3.7-2.5,1.9-4.3c-1.9-2-3.6,0.4-4.9,1.8
		c-3.7,4.1-8.2,6.5-13.2,8.6c-4.4,1.9-6.5-1.4-9.3-3c-2.4-1.3-1.7-4.3-0.6-6.4c2.2-4.2,1.6-9.2,4.1-13.3c0.7-1.1,1.1-3,2.7-1.9
		c6,4,11.3,0.9,16.3-1.7c3-1.6,4.8-1.7,7.3,0.9c2.9,3.2,6.6,1.7,9.7,0.1c3.6-2,6.8-2.1,10.4-0.4c3,1.4,6.2,0.8,9.3,0.4
		c6.2-0.8,7.2,0,8.3,5.9c1.3,7.2-1.1,14.2-0.6,21.4c0.1,2.1-1.4,2-2.7,1.7c-4.5-0.9-8.9-0.8-13.3,0.7c-1.3,0.4-2.2-0.2-3.2-0.9
		c-5.5-3.5-11.5-4.3-17.7-2.3C-244,589.1-247.2,588.5-250.3,586.2z M-210.5,563.2c-6.7,1.4-11.7,6.2-16,11.7c-1,1.2-2.1,3.1-0.1,4.3
		c1.9,1.1,2.4-1,3.3-2.1c3.8-4.4,7.6-8.8,13.8-9.9c1.7-0.3,4.4,0.4,4.1-2.2C-205.5,562.5-208.2,563.7-210.5,563.2z"/>
	<path fill="#EF451A" d="M-391.5,327.4c-11.4,0.4-21.8-0.2-31.8,2.2c-6.6,1.6-12.1-0.7-18-3c-4.5-1.8-9.4-1.3-14.2-1.9
		c-2.2-0.3-4.5,0-6.9-0.5c1.9-1.6,1.5-5.6,5.7-4.6c1.9,0.5,4.7,1.5,5.7-1.2c0.9-2.6-2.4-2.5-3.8-4c2.6-2.4,5.2-4.5,7.5-6.9
		c3.6-3.8,6-8.1,4-13.5c-0.9-2.3,0.1-4.5,1.1-6.1c1-1.7,2.9,0.6,4.4,0.6c7.5,0.1,9.6,6.2,12.4,11.3c1.2,2.2,2.1,4.5,4,6.3
		c1.6,1.5,3.4,4.2,5.7,1.6c1.9-2.1,1.4-5.4-0.8-6.6c-3.6-2.1-5.3-5.8-8.3-8.3c-0.9-0.7-2.5-1.8-1.3-3.1c1-1.1,2.6-1.1,4,0.1
		c7.5,6.4,16.6,11.7,20.3,21.4C-399.5,317.1-396.1,321.9-391.5,327.4z M-428,317.9c1.6,0.2,3.2,0.7,4.4-0.6c0.3-0.3,0.5-1.5,0.2-1.8
		c-2-1.8-4.5-1.8-7-2c-2-0.2-3.5,0.8-4.4,2.7c-0.5,1.1-0.9,2.3,0.2,3.2c0.9,0.7,1.9,0.3,2.6-0.5C-430.8,317.6-429.4,317.6-428,317.9
		z M-417,318.7c-0.1-1.7-1.2-2.3-2.6-2.4c-1.1-0.1-2.1,0.4-2.1,1.6c0,1.6,1.3,2.2,2.6,2.4C-417.9,320.5-417.2,319.9-417,318.7z"/>
	<path fill="#EF451A" d="M-711.1,350"/>
	<path fill="#EF451A" d="M-706.8,350c3.2-6.3,11.4-11.9,15.2-18c2.1,1.5,1.3,2.2,2.2,4.5c2.8,7.4,8.6,12.1,14.8,16.3
		c2.9,2,5.7,1.4,8.2-0.8c3.3-3,7-4.3,11.5-3.3c1.6,0.4,3.4,0.5,3.6,2.7c0.2,1.8-0.3,3.3-2,4.2c-0.4,0.2-0.8,0.8-1.2,0.8
		c-7.6,0.7-11.9,6.6-17,10.9c-7.3,6.1-16.2,7.5-25,8.9c-7.5,1.2-15.3,1.2-23,0.1c-0.5-2.2,1.2-3.3,2.3-4.7c3.4-4.3,6.2-8.9,8.6-13.9
		"/>
	<path fill="#EF451A" d="M-202.5,645c-3.7,11.7-1.6,24.8-2.6,37.7c-0.2,2.5-0.5,2.5-3.2,2c-6.5-1.2-10.1-6.1-14.3-10
		c-2.6-2.4-3.4-6.9-6.1-10c-3.2-3.6-0.3-7.7,1.1-11.6c1.4-3.9,0.3-8.3,1.7-12.5c0.9-2.7,1.7-2.7,3.6-1.7c4.8,2.3,9.3,2.7,14.1-0.3
		C-205.1,636.6-202.2,639.6-202.5,645z"/>
	<path fill="#EF451A" d="M-251.7,720.2c-9.3-0.2-14,5.3-17.7,12.1c-1.3,2.4-3,4.4-5.2,6c-2.4,1.8-4.6,3.8-4.9,7.2
		c-6.2-2.9-8.1-8.6-10.3-13.9c-2.7-6.8-6-13.4-9-20c-1-2.2-2-4.5-5.1-2.2c-1,0.8-1.9,0-2.4-0.9c-0.6-1-1.3-2.2-0.7-3.3
		c0.5-1,1.8-0.5,2.8-0.4c0.3,0.1,0.7,0.3,1,0.2c7.2-3,12.8,0.2,18.2,4.6c2,1.6,5.2,1.7,7.6,0.2c2.7-1.6,4.2-0.7,5.9,1.4
		c3.6,4.5,8.1,6.7,14,5.4C-254.7,716.1-253.1,717.3-251.7,720.2z"/>
	<path fill="#EF451A" d="M-365.9,648.2c-0.4-4-0.1-8-0.2-12c-0.1-2,0.9-2.7,2.7-2.5c5.8,0.4,10.9-0.8,16.2-3.6
		c4.3-2.3,9.7-0.5,13.9,1.5c2.4,1.2,5,2.5,7.4,3.9c5.2,3,7.4,7.9,5.6,13.5c-1.2,3.6-4.3,3.5-7.4,3.4"/>
	<path fill="#EF451A" d="M-725.6,662.5c-0.2-1.1,0.1-2.8-0.6-3.3c-4.5-4-2.2-7.5,0.4-11.2c3.7-5.3,5.4-12.3,13-14.1
		c2.6-0.6,10.7,2.2,11.9,4.6c1.5,3,4.2,4.7,6.8,6.5c1.9,1.3,3.2,3,3.7,5.1c0.8,3-2.8,2.5-3.5,3.9c-2.6,5.5-6.8,3.3-11,3.1
		c-6.5-0.2-11.7,3.2-16.6,7.1c-1.2,0.9-2.3,2.4-3.8,1.8C-727,665.4-725.5,663.7-725.6,662.5z"/>
	<path fill="#EF451A" d="M-641.1,563.7c3,1.4,5.9,3.3,8.9-0.2c1.3-1.5,2.4-0.4,3.6,0.8c3.5,3.6,7.3,3.4,10.4-0.6
		c2.2-2.8,4.8-3,7.9-2.1c0.8,6.9,0.6,13.9,0.2,20.8c-0.2,2.8-0.2,4.3-3.8,3.5c-8.3-1.9-16.7-2.5-25.2-0.5c-4.6,1.1-6.5-1.4-6.5-5.7
		c0-4.4-1.2-9,0.9-13.3"/>
	<path fill="#EF451A" d="M-732.9,585c-0.2,3.2-2.8,4.9-5.9,3.5c-4.6-2.1-9-2-13.2,0.8c-1.2,0.8-2.6,1.4-4,2c-2,0.8-3.6-0.5-5-1.5
		c-1.5-1-0.2-2.4,0.2-3.6c1-3,2.2-5.9,2.1-9.2c-0.1-2.5-0.6-4.7-2.7-6.1c-3.2-2-2.2-3.5,0.3-5.1c2.8-1.8,6.7-1.7,8.5-5.5
		c0.5-1.1,3-0.3,4,0.8c2.9,3.4,6.6,2.5,10.2,2.3c0.5,0,1-0.3,1.4-0.4c3.4-0.8,7.6-0.4,8.9,2.4c1.2,2.6-2.6,4.5-4.9,6
		c-6.7,4.4-6.7,4.4-0.9,10.8C-733.4,583.1-732.8,583.9-732.9,585z"/>
	<path fill="#EF451A" d="M-261.8,666.4c-1.1-0.1-1.9-0.8-2.4-1.7c-3.5-6.1-9.3-6.1-15.3-5.8c-1.1,0.1-2.6,0.5-3.4,0
		c-2.4-1.4-5.5-3.1-5.6-5.9c0-2.1,3.4-2,5.4-2.6c7.4-2.3,8.7-4.3,8.8-11.7c0-3.1,4-2.4,5.7-4.3c1.3-1.4,3.6-0.5,4.5,1.4
		c1.2,2.4,3,3.1,5.6,3.2c4.5,0.3,10.9,9.1,9.9,13.3c-0.6,2.5-3,3-5,3.5c-4.4,1.1-8,2.6-6.5,8.3
		C-259.8,665.3-260.1,666.5-261.8,666.4z"/>
	<path fill="#EF451A" d="M-685.8,565c3.1,1.3,5.2,0.8,7.5-1.4c3.1-3,10.3-2.9,14-0.6c3.8,2.4,7.3,6.3,12.4,2.3
		c0.8-0.6,1.7-0.3,1.8,0.7c0.3,5.1,2.1,10.1,0.4,15.3c-0.7,2.1-1.5,2.1-3.2,1.4c-3.8-1.6-7.5-0.9-10.9,1.1c-3.5,2-6.6,2.2-10.1-0.4
		c-1.6-1.2-3.4-3.5-5.6-2.9c-5.7,1.5-5-1.9-5.1-5.5C-684.8,572-685.4,568.8-685.8,565z"/>
	<path fill="#EF451A" d="M-649.9,644.7c0,0.7,0.1,1.4,0,2c-0.3,1.6,1.2,3.7-0.6,4.6c-1.7,0.9-2.9-1.1-4.1-2.1
		c-4-3.1-10.3-2.5-14.3,2c-1.9,2.2-3.4,2.7-5.9,1.6c-0.7-0.3-1.7-0.4-2.5-0.3c-5.5,0.9-9.6,0.1-10.8-6.6c-0.6-3.5-4.6-4.5-7.1-6.7
		c-2.2-1.9-3.4-3.6,0.8-4.3c1.4-0.2,2.5-0.7,3.4-1.9c1.7-2.1,3.2-1.5,5.1,0c6.4,5.4,14.7,6,22.3,1.6c1.2-0.7,2.2-0.5,3.3-0.2
		c1.3,0.4,2.6,1,3.8,0.9c7-0.2,7-0.3,6.5,7.3C-650,643.4-649.9,644.1-649.9,644.7z"/>
	<path fill="#EF451A" d="M-308.6,631.4c2.9,0.5,6,3.4,10.1,2.6c1.9-0.4,3.9-0.1,5.9-0.8c2.4-0.9,14.3,5.7,14.8,8
		c0.6,2.4-1.4,3.7-2.9,4c-6.1,1.3-10.9,6.1-17.3,6.6c-1,0.1-2,1.1-3,1.6c-7.3,3.7-15.1-1-15-9c0-1.5-0.2-3-0.3-4.5
		c0-1.9-3.4-3.5-1.3-5.1C-315.3,632.9-312.5,631.6-308.6,631.4z"/>
	<path fill="#EF451A" d="M-229.7,640c-2.2,6.4-1.3,12.3-3.8,17.7c-1.7,3.9-0.2,8.1,3.1,11.4c0.9,0.8,2.6,1.6,1.9,3.1
		c-0.7,1.5-2.2,2.4-4.1,2.3c-1.8-0.2-3.8-0.1-5.1-1.6c-3.9-4.7-9.1-6.5-15-6.4c-1.8,0-3.1-0.1-3.3-2.5c-0.2-2.1-0.2-3.6,2.3-4
		c11.5-2.2,10.5-8.9,6.1-17.5c-0.8-1.5-4-2.7-2-4.7c1.8-1.8,4.4-0.4,6.5,0.6C-239.2,640.1-235.4,643.1-229.7,640z"/>
	<path fill="#EF4216" d="M-333.1,582.9c-2.2,0-4-1.2-5.9-2.1c-4.7-1.9-9.3-1.7-14-0.1c-3.7,3.6-10.8,2.5-15.1,2.5
		c0-5.4,0-11.3,0-17.2c1.7-0.2,6,0.4,7.2-1.5c2.3,0.4,4.8-0.3,6.9,1.1c0.4,2.3,1.4,2.8,3.1,0.9c1.7,0.1,3.3,0,5,0.2
		c4.8,0.6,8.7,0.1,9.4-6.1c0.2-2,1.7-4.5,4.8-2.7C-334.4,566.1-332.4,574.5-333.1,582.9z"/>
	<path fill="#EF451A" d="M-781.1,588.1c-0.3-2,0.2-3.7,0.8-5.5c2.1-5.7,3.2-11.6,3.1-17.6c0-2.1,0.5-3.6,2.6-4.3
		c3.2-1.1,5.4,1.3,7.8,2.5c1.7,0.8-0.1,2.4-0.5,3.4c-1.1,2.9-0.7,5.2,2.2,6.7c2,1,2.1,2.7,2.1,4.7c-0.1,7.7-6.7,15.2-14.3,15.8
		C-781.7,594.2-781.2,590.8-781.1,588.1z"/>
	<path fill="#EF451A" d="M-270.8,562.2c-1.5,6.1-3,12.1-4.6,18.1c-0.9,3.4-12.8,7.7-15.5,5.5c-1.6-1.3-3.3-2-4.9-3.1
		c-3.6-2.4-0.5-4.8,0.7-6.9c0.7-1.2,2.4-1.7,3.6-2.6c2.5-2,4.5-4.2,2.4-7.6c-0.7-1.2-0.7-2.1,0.6-2.9c0.8-0.5,1.4-1.2,2.6-0.8
		C-277.3,565.1-277.1,565.1-270.8,562.2z"/>
	<path fill="#EF451A" d="M-717,565.1c-0.2,6.4,3.4,9.2,9.3,10c1.4,0.2,2.9,0.8,4.2,1.5c1.9,1.1,2.5,3,2.6,5.1c0,2-1.9,2.1-3.1,2.7
		c-4.6,1.9-9.4,3.4-14.4,1c-0.4-0.2-1-0.5-1.4-0.4c-7.4,2.4-10.1-3.7-14.2-8.3C-727.2,574.6-725.4,565.9-717,565.1z"/>
	<path fill="#EF451A" d="M-645.7,648.5c-1.1-12.6-1.1-12.4,10.2-12.8c7.9-0.3,15.9,2.9,23.7-0.5c1.6-0.7,2.2,0.4,2.2,1.7
		c-0.1,3.3,1.6,6.9-3.9,8.3c-3.3,0.8-5.6,3.2-9.4,0.6c-1.6-1.1-5.4-0.6-7.5,0C-635.4,647.1-640.8,644.7-645.7,648.5z"/>
	<path fill="#EF451A" d="M-444.8,229.4c8.6,4.7,18.2,5,27.5,6.4c5.8,0.9,11.1,3.5,15.8,7c0.9,0.7,2.3,1.2,2,2.6
		c-0.2,1.1-1.5,1.1-2.5,1.3c-10,1.7-19.6,2.5-28-5.5c-4.5-4.3-10.3-7.1-15.5-10.5C-445.2,230.2-445,229.8-444.8,229.4z"/>
	<path fill="#EF451A" d="M-333.1,582.9c0.7-8.3-1.2-16.8,1.4-25c1.9-0.1,3.2,0.6,4.5,2.3c4.3,5.5,8.1,6.2,14.2,2.8
		c2.6-1.4,4.2-1.5,6.5,0.7c3,2.9,6.8,4.1,11,2.9c1.1-0.3,2.2-1,2.9,0.7c0.5,1.4-0.3,2.3-1.3,2.9c-3.6,2.4-6.4,4.5-12.1,3
		c-6.1-1.6-13.5-4-20.2,0.2c-1.5,1-2.9,0.5-2.8-1.8c0.1-2.3-0.3-4.4-2.1-6.3c0,5.6,0,11.2,0,16.7
		C-331.1,583.7-331.4,584.8-333.1,582.9z"/>
	<path fill="#EF451A" d="M-688.2,578.8c-0.2,1.6,0.1,3.1-0.5,4.2c-0.8,1.8-0.1,5.4-3.1,4.8c-2.2-0.4-4.9-2.4-5-5.2
		c-0.3-7.4-4.6-10.6-11.3-11.7c-3.3-0.5-4.8-2.1-5.1-5.6c-0.4-3.8,1.7-4.1,3.6-2.6c5,3.8,10.6,3.3,16.2,2.8c2.6-0.2,3.7,0.7,4,3.1
		C-688.9,572.2-688.5,575.7-688.2,578.8z"/>
	<path fill="#EF451A" d="M-319.8,574.9c4.5,1.9,9,0,13.1,1.5c2,0.8,4.6,1.4,5.1,4.1c0.2,1.2-0.8,1.5-1.7,2c-2.5,1.2-4.7,4.3-7.9,1.5
		c-2.3-2.1-4.8-3.3-8-3.4c-2.4-0.1-4.6-0.1-6.3,1.9c-0.8,0.9-2.3,2.3-3.2,1c-1-1.4-1.2-4.2,0.2-5
		C-325.8,576.9-322.6,576-319.8,574.9z"/>
	<path fill="#EF451A" d="M-327.8,718.1c0.1-0.9-1.1-2.9,0.3-3.6c1.9-0.9,2.6,1.4,3.7,2.5c4.8,4.8,4,10.5,2.4,16.3
		c-0.5,1.9-1.7,2.1-3.3,2.1c-2-0.1-2.4-1.1-2.5-2.9C-327.3,727.9-327.5,723.3-327.8,718.1z"/>
	<path fill="#EF451A" d="M-310.1,490.4c1.3-6.2,1.1-12-0.3-18.4c-1.2-5.8-4.5-10.5-5.7-16.1c1.7-0.4,3.4-0.7,5.1-1.1
		c-2.4,4.5,1.3,8.4,2.4,11.9c2.1,6.5,0.3,12.8,1.5,19c0.3,1.4,0,3,0,4.5C-308.1,490.2-309.1,490.3-310.1,490.4z"/>
	<path fill="#EF451A" d="M-721.2,503.7c0,4.7,2.8,6.3,4.9,8.4c0.9,0.8,1.8,1.9,1.1,3c-0.8,1.2-1.7-0.2-2.5-0.3
		c-2.8-0.2-5.6-0.4-8.5-0.4c-3.1,0-3-1.5-1.5-3.3C-726,508.9-724,506.9-721.2,503.7z"/>
	<path fill="#EF451A" d="M-541.6,280.4c-2.3,1.4-1.3,6.3-5.3,5.2c-1.8-0.5-3.3-3.7-2.5-4.7C-547.5,278.4-544.4,279.9-541.6,280.4z"
		/>
	<path fill="#EF451A" d="M-715.9,720.4c-1.6,0-2.8,0.2-3.9,0c-1.5-0.3-3.1-1.4-2.8-3c0.3-1.7,2.1-1.2,3.4-0.9
		c1.1,0.2,2.2,0.7,3.3,0.9c1.5,0.4,4.1-0.5,3.9,1.8C-712.1,721.7-714.8,719.8-715.9,720.4z"/>
	<path fill="#EF451A" d="M-620.2,326.1c-3.4,0.6-5.5,1-7.6,1.2c-1,0.1-2.7,0.8-3-0.6c-0.3-1.3-0.1-3.1,0.6-4.2
		c0.8-1.3,2,0.3,2.9,0.7C-625.3,323.9-623.4,324.8-620.2,326.1z"/>
	<path fill="#EF451A" d="M-332.9,497c6.6,1.6,13.2,3.7,20.4,2.1c-5.9,7.5-10,16.3-19.8,19.5C-334,511.4-332.8,504.2-332.9,497z"/>
	<path fill="#EF451A" d="M-214.8,501.2c-0.4,4.8,1.8,10.4-4.2,13.6c-1.6,0.8-2.9,1.6-4.2-0.4c-1.2-1.8-3.4-2.6-5.3-2.3
		c-5.5,0.9-7.7-2.4-9.6-6.6c-0.6-1.3-1.1-3.9-3.3-2.8c-2.3,1.1-0.7,3.1-0.2,4.8c0.6,2.1,3.8,3.6,1,6.5c-1.8,1.9-3,3.6-5.3,0.7
		c-0.5-0.7-1.8-1.1-2.7-1c-6.4,0.8-9.3-2.8-10.8-8.3c-0.9-3.2-2.7-6.1-5-8.6c-0.8-0.9-1.9-1.8-3-1c-1.5,1-0.8,2.4,0.1,3.5
		c2.3,2.7,3.8,5.9,4.9,9.2c0.5,1.5,2.6,3.3,0.2,4.8c-2.3,1.5-4,4.5-7.8,2.5c-3.4-1.9-7.1-3.6-11.3-3.2c-1.9,0.2-3-1.2-3.9-2.7
		c-2.1-3.8-4.2-7.6-6.3-11.3c-0.5-0.9-0.8-1.8-0.2-2.8c1.4-2.1,3.9-3.2,5.4-5.1c2.3-3.1,4.2-0.8,6.5-0.4c5.8,0.9,10.8-1.6,15-5.3
		c1.9-1.6,3.1-2.2,5.5-0.7c4.5,2.8,8-0.7,14.1-5.7c1.1-0.9,1.9-2.3,3-3.3c1.8-1.7,3.3-3.3,6-0.4c2.8,2.9,5.8,0,8.7-1
		c1.2-0.5,2.6-3.5,3.8-0.8c0.9,2,2.9,4.7,0,7.2c-4.8,4-9,8.4-10.6,14.7c-0.2,0.8-0.6,1.6-0.7,2.4c-0.1,1.6-0.9,3.7,1.4,4.1
		c1.8,0.3,2.2-1.5,2.5-3.1c1-5.1,3.6-9.2,7.2-12.8c2-2,2.8-1.5,4.6,0.4C-214.8,490.1-213.4,495.2-214.8,501.2z"/>
	<path fill="#EF451A" d="M-309.7,495.6c8.3-2.1,11.3-1,14.7,4.7c1.9,3.1,3.6,6.3,5.3,9.5c0.7,1.3,1.8,2.6-0.1,3.9
		c-1.3,0.9-2.3,1.2-4,0.3c-5.5-3-9.8-2.1-13.7,2.6c-1,1.2-1.8,1.4-2.7,0.3c-1.5-1.8-3.2-3.3-5.3-4.4c-1.9-1-0.5-2.3,0.3-3.2
		c2.3-2.8,4.6-5.7,7.1-8.3C-306,498.8-305.5,497.2-309.7,495.6z"/>
</g>
</svg>
